<?xml version="1.0" encoding="UTF-8" standalone="no"?>
<!DOCTYPE svg PUBLIC "-//W3C//DTD SVG 1.1//EN"
 "http://www.w3.org/Graphics/SVG/1.1/DTD/svg11.dtd">
<!-- Generated by graphviz version 2.47.3 (20210619.1520)
 -->
<!-- Title: CNMOPS Pages: 1 -->
<svg width="1052pt" height="204pt"
 viewBox="0.00 0.00 1052.39 204.00" xmlns="http://www.w3.org/2000/svg" xmlns:xlink="http://www.w3.org/1999/xlink">
<g id="graph0" class="graph" transform="scale(1 1) rotate(0) translate(4 200)">
<title>CNMOPS</title>
<polygon fill="white" stroke="transparent" points="-4,4 -4,-200 1048.39,-200 1048.39,4 -4,4"/>
<g id="clust1" class="cluster">
<title>cluster_0</title>
<polygon fill="white" stroke="black" points="132.39,-64 132.39,-188 468.39,-188 468.39,-64 132.39,-64"/>
</g>
<g id="clust2" class="cluster">
<title>cluster_1</title>
<polygon fill="white" stroke="black" points="476.39,-64 476.39,-188 790.39,-188 790.39,-64 476.39,-64"/>
</g>
<!-- CALL_FemaleR2 -->
<g id="node1" class="node">
<title>CALL_FemaleR2</title>
<ellipse fill="none" stroke="black" cx="62.39" cy="-90" rx="62.29" ry="18"/>
<text text-anchor="middle" x="62.39" y="-86.3" font-family="Times,serif" font-size="14.00">call FemaleR2</text>
</g>
<!-- CALL_CleanCNMops -->
<g id="node2" class="node">
<title>CALL_CleanCNMops</title>
<ellipse fill="none" stroke="black" cx="539.39" cy="-18" rx="79.09" ry="18"/>
<text text-anchor="middle" x="539.39" y="-14.3" font-family="Times,serif" font-size="14.00">call CleanCNMops</text>
</g>
<!-- CALL_FemaleR2&#45;&gt;CALL_CleanCNMops -->
<g id="edge1" class="edge">
<title>CALL_FemaleR2&#45;&gt;CALL_CleanCNMops</title>
<path fill="none" stroke="black" d="M95.45,-74.6C105.83,-70.6 117.43,-66.63 128.39,-64 237.89,-37.72 367.52,-26.75 451.5,-22.19"/>
<polygon fill="black" stroke="black" points="451.71,-25.69 461.51,-21.67 451.34,-18.7 451.71,-25.69"/>
</g>
<!-- SCATTER_0_VARIABLE_Chrom -->
<g id="node3" class="node">
<title>SCATTER_0_VARIABLE_Chrom</title>
<polygon fill="none" stroke="black" points="460.1,-162 380.25,-180 220.54,-180 140.69,-162 220.54,-144 380.25,-144 460.1,-162"/>
<text text-anchor="middle" x="300.39" y="-158.3" font-family="Times,serif" font-size="14.00">scatter over Array[String] as Chrom</text>
</g>
<!-- CALL_NormalR2 -->
<g id="node4" class="node">
<title>CALL_NormalR2</title>
<ellipse fill="none" stroke="black" cx="251.39" cy="-90" rx="63.89" ry="18"/>
<text text-anchor="middle" x="251.39" y="-86.3" font-family="Times,serif" font-size="14.00">call NormalR2</text>
</g>
<!-- SCATTER_0_VARIABLE_Chrom&#45;&gt;CALL_NormalR2 -->
<g id="edge2" class="edge">
<title>SCATTER_0_VARIABLE_Chrom&#45;&gt;CALL_NormalR2</title>
<path fill="none" stroke="black" d="M288.28,-143.7C282.53,-135.47 275.53,-125.48 269.19,-116.42"/>
<polygon fill="black" stroke="black" points="271.97,-114.29 263.37,-108.1 266.23,-118.3 271.97,-114.29"/>
</g>
<!-- CALL_NormalR1 -->
<g id="node5" class="node">
<title>CALL_NormalR1</title>
<ellipse fill="none" stroke="black" cx="396.39" cy="-90" rx="63.89" ry="18"/>
<text text-anchor="middle" x="396.39" y="-86.3" font-family="Times,serif" font-size="14.00">call NormalR1</text>
</g>
<!-- SCATTER_0_VARIABLE_Chrom&#45;&gt;CALL_NormalR1 -->
<g id="edge3" class="edge">
<title>SCATTER_0_VARIABLE_Chrom&#45;&gt;CALL_NormalR1</title>
<path fill="none" stroke="black" d="M324.12,-143.7C336.82,-134.44 352.58,-122.95 366.14,-113.06"/>
<polygon fill="black" stroke="black" points="368.24,-115.86 374.25,-107.14 364.11,-110.21 368.24,-115.86"/>
</g>
<!-- CALL_NormalR2&#45;&gt;CALL_CleanCNMops -->
<g id="edge9" class="edge">
<title>CALL_NormalR2&#45;&gt;CALL_CleanCNMops</title>
<path fill="none" stroke="black" d="M288.11,-75.23C299.34,-71.3 311.79,-67.21 323.39,-64 371.25,-50.77 426.01,-39.4 468.42,-31.4"/>
<polygon fill="black" stroke="black" points="469.19,-34.82 478.38,-29.54 467.9,-27.94 469.19,-34.82"/>
</g>
<!-- CALL_NormalR1&#45;&gt;CALL_CleanCNMops -->
<g id="edge6" class="edge">
<title>CALL_NormalR1&#45;&gt;CALL_CleanCNMops</title>
<path fill="none" stroke="black" d="M426.72,-74.15C447.62,-63.93 475.63,-50.21 498.5,-39.02"/>
<polygon fill="black" stroke="black" points="500.18,-42.09 507.62,-34.55 497.1,-35.8 500.18,-42.09"/>
</g>
<!-- SCATTER_1_VARIABLE_Allo -->
<g id="node6" class="node">
<title>SCATTER_1_VARIABLE_Allo</title>
<polygon fill="none" stroke="black" points="782.09,-162 707.74,-180 559.05,-180 484.7,-162 559.05,-144 707.74,-144 782.09,-162"/>
<text text-anchor="middle" x="633.39" y="-158.3" font-family="Times,serif" font-size="14.00">scatter over Array[String] as Allo</text>
</g>
<!-- CALL_MaleR2 -->
<g id="node7" class="node">
<title>CALL_MaleR2</title>
<ellipse fill="none" stroke="black" cx="539.39" cy="-90" rx="54.69" ry="18"/>
<text text-anchor="middle" x="539.39" y="-86.3" font-family="Times,serif" font-size="14.00">call MaleR2</text>
</g>
<!-- SCATTER_1_VARIABLE_Allo&#45;&gt;CALL_MaleR2 -->
<g id="edge4" class="edge">
<title>SCATTER_1_VARIABLE_Allo&#45;&gt;CALL_MaleR2</title>
<path fill="none" stroke="black" d="M610.16,-143.7C597.67,-134.4 582.15,-122.84 568.82,-112.91"/>
<polygon fill="black" stroke="black" points="570.55,-109.84 560.44,-106.67 566.37,-115.45 570.55,-109.84"/>
</g>
<!-- CALL_MaleR1 -->
<g id="node9" class="node">
<title>CALL_MaleR1</title>
<ellipse fill="none" stroke="black" cx="666.39" cy="-90" rx="54.69" ry="18"/>
<text text-anchor="middle" x="666.39" y="-86.3" font-family="Times,serif" font-size="14.00">call MaleR1</text>
</g>
<!-- SCATTER_1_VARIABLE_Allo&#45;&gt;CALL_MaleR1 -->
<g id="edge10" class="edge">
<title>SCATTER_1_VARIABLE_Allo&#45;&gt;CALL_MaleR1</title>
<path fill="none" stroke="black" d="M641.55,-143.7C645.31,-135.73 649.85,-126.1 654.01,-117.26"/>
<polygon fill="black" stroke="black" points="657.23,-118.64 658.33,-108.1 650.9,-115.66 657.23,-118.64"/>
</g>
<!-- CALL_MaleR2&#45;&gt;CALL_CleanCNMops -->
<g id="edge8" class="edge">
<title>CALL_MaleR2&#45;&gt;CALL_CleanCNMops</title>
<path fill="none" stroke="black" d="M539.39,-71.7C539.39,-63.98 539.39,-54.71 539.39,-46.11"/>
<polygon fill="black" stroke="black" points="542.89,-46.1 539.39,-36.1 535.89,-46.1 542.89,-46.1"/>
</g>
<!-- CALL_FemaleR1 -->
<g id="node8" class="node">
<title>CALL_FemaleR1</title>
<ellipse fill="none" stroke="black" cx="860.39" cy="-90" rx="62.29" ry="18"/>
<text text-anchor="middle" x="860.39" y="-86.3" font-family="Times,serif" font-size="14.00">call FemaleR1</text>
</g>
<!-- CALL_FemaleR1&#45;&gt;CALL_CleanCNMops -->
<g id="edge5" class="edge">
<title>CALL_FemaleR1&#45;&gt;CALL_CleanCNMops</title>
<path fill="none" stroke="black" d="M826.54,-74.79C816.34,-70.88 805.03,-66.92 794.39,-64 735.78,-47.88 667.93,-36.23 616.96,-28.83"/>
<polygon fill="black" stroke="black" points="617.4,-25.36 607,-27.41 616.41,-32.29 617.4,-25.36"/>
</g>
<!-- CALL_MaleR1&#45;&gt;CALL_CleanCNMops -->
<g id="edge7" class="edge">
<title>CALL_MaleR1&#45;&gt;CALL_CleanCNMops</title>
<path fill="none" stroke="black" d="M639.46,-74.15C621.28,-64.13 597.02,-50.76 576.95,-39.7"/>
<polygon fill="black" stroke="black" points="578.5,-36.56 568.05,-34.8 575.12,-42.69 578.5,-36.56"/>
</g>
<!-- CALL_GetPed -->
<g id="node10" class="node">
<title>CALL_GetPed</title>
<ellipse fill="none" stroke="black" cx="992.39" cy="-90" rx="51.99" ry="18"/>
<text text-anchor="middle" x="992.39" y="-86.3" font-family="Times,serif" font-size="14.00">call GetPed</text>
</g>
<!-- CALL_GetPed&#45;&gt;CALL_CleanCNMops -->
<g id="edge11" class="edge">
<title>CALL_GetPed&#45;&gt;CALL_CleanCNMops</title>
<path fill="none" stroke="black" d="M962.86,-74.99C953.04,-70.85 941.92,-66.71 931.39,-64 828.96,-37.67 707.5,-26.73 627.22,-22.19"/>
<polygon fill="black" stroke="black" points="627.32,-18.7 617.15,-21.65 626.94,-25.68 627.32,-18.7"/>
</g>
</g>
</svg>
