<?xml version="1.0" encoding="UTF-8" standalone="no"?>
<!DOCTYPE svg PUBLIC "-//W3C//DTD SVG 1.1//EN"
 "http://www.w3.org/Graphics/SVG/1.1/DTD/svg11.dtd">
<!-- Generated by graphviz version 2.46.1 (20210213.1702)
 -->
<!-- Title: CramToBam Pages: 1 -->
<svg width="928pt" height="76pt"
 viewBox="0.00 0.00 928.00 76.00" xmlns="http://www.w3.org/2000/svg" xmlns:xlink="http://www.w3.org/1999/xlink">
<g id="graph0" class="graph" transform="scale(1 1) rotate(0) translate(4 72)">
<title>CramToBam</title>
<polygon fill="white" stroke="transparent" points="-4,4 -4,-72 924,-72 924,4 -4,4"/>
<g id="clust1" class="cluster">
<title>cluster_0</title>
<polygon fill="white" stroke="black" stroke-dasharray="5,2" points="8,-8 8,-60 414,-60 414,-8 8,-8"/>
</g>
<g id="clust2" class="cluster">
<title>cluster_1</title>
<polygon fill="white" stroke="black" stroke-dasharray="5,2" points="422,-8 422,-60 912,-60 912,-8 422,-8"/>
</g>
<!-- CALL_RunCramToBam -->
<g id="node1" class="node">
<title>CALL_RunCramToBam</title>
<ellipse fill="none" stroke="black" cx="319" cy="-34" rx="87.18" ry="18"/>
<text text-anchor="middle" x="319" y="-30.3" font-family="Times,serif" font-size="14.00">call RunCramToBam</text>
</g>
<!-- CONDITIONAL_0_EXPRESSION -->
<g id="node2" class="node">
<title>CONDITIONAL_0_EXPRESSION</title>
<polygon fill="none" stroke="black" stroke-dasharray="5,2" points="214.13,-34 164.56,-52 65.44,-52 15.87,-34 65.44,-16 164.56,-16 214.13,-34"/>
<text text-anchor="middle" x="115" y="-30.3" font-family="Times,serif" font-size="14.00">if (!(requester_pays))</text>
</g>
<!-- CALL_RunCramToBamRequesterPays -->
<g id="node3" class="node">
<title>CALL_RunCramToBamRequesterPays</title>
<ellipse fill="none" stroke="black" cx="765" cy="-34" rx="139.18" ry="18"/>
<text text-anchor="middle" x="765" y="-30.3" font-family="Times,serif" font-size="14.00">call RunCramToBamRequesterPays</text>
</g>
<!-- CONDITIONAL_1_EXPRESSION -->
<g id="node4" class="node">
<title>CONDITIONAL_1_EXPRESSION</title>
<polygon fill="none" stroke="black" stroke-dasharray="5,2" points="608.12,-34 563.56,-52 474.44,-52 429.88,-34 474.44,-16 563.56,-16 608.12,-34"/>
<text text-anchor="middle" x="519" y="-30.3" font-family="Times,serif" font-size="14.00">if (requester_pays)</text>
</g>
</g>
</svg>
