<?xml version="1.0" encoding="UTF-8" standalone="no"?>
<!DOCTYPE svg PUBLIC "-//W3C//DTD SVG 1.1//EN"
 "http://www.w3.org/Graphics/SVG/1.1/DTD/svg11.dtd">
<!-- Generated by graphviz version 2.47.3 (20210619.1520)
 -->
<!-- Title: Delly Pages: 1 -->
<svg width="332pt" height="204pt"
 viewBox="0.00 0.00 332.00 204.00" xmlns="http://www.w3.org/2000/svg" xmlns:xlink="http://www.w3.org/1999/xlink">
<g id="graph0" class="graph" transform="scale(1 1) rotate(0) translate(4 200)">
<title>Delly</title>
<polygon fill="white" stroke="transparent" points="-4,4 -4,-200 328,-200 328,4 -4,4"/>
<g id="clust1" class="cluster">
<title>cluster_0</title>
<polygon fill="white" stroke="black" points="8,-64 8,-188 316,-188 316,-64 8,-64"/>
</g>
<!-- CALL_RunDelly -->
<g id="node1" class="node">
<title>CALL_RunDelly</title>
<ellipse fill="none" stroke="black" cx="162" cy="-90" rx="59.59" ry="18"/>
<text text-anchor="middle" x="162" y="-86.3" font-family="Times,serif" font-size="14.00">call RunDelly</text>
</g>
<!-- CALL_GatherBCFs -->
<g id="node2" class="node">
<title>CALL_GatherBCFs</title>
<ellipse fill="none" stroke="black" cx="162" cy="-18" rx="69.59" ry="18"/>
<text text-anchor="middle" x="162" y="-14.3" font-family="Times,serif" font-size="14.00">call GatherBCFs</text>
</g>
<!-- CALL_RunDelly&#45;&gt;CALL_GatherBCFs -->
<g id="edge1" class="edge">
<title>CALL_RunDelly&#45;&gt;CALL_GatherBCFs</title>
<path fill="none" stroke="black" d="M162,-71.7C162,-63.98 162,-54.71 162,-46.11"/>
<polygon fill="black" stroke="black" points="165.5,-46.1 162,-36.1 158.5,-46.1 165.5,-46.1"/>
</g>
<!-- SCATTER_0_VARIABLE_event_type -->
<g id="node3" class="node">
<title>SCATTER_0_VARIABLE_event_type</title>
<polygon fill="none" stroke="black" points="307.69,-162 234.84,-180 89.16,-180 16.31,-162 89.16,-144 234.84,-144 307.69,-162"/>
<text text-anchor="middle" x="162" y="-158.3" font-family="Times,serif" font-size="14.00">scatter over String as event_type</text>
</g>
<!-- SCATTER_0_VARIABLE_event_type&#45;&gt;CALL_RunDelly -->
<g id="edge2" class="edge">
<title>SCATTER_0_VARIABLE_event_type&#45;&gt;CALL_RunDelly</title>
<path fill="none" stroke="black" d="M162,-143.7C162,-135.98 162,-126.71 162,-118.11"/>
<polygon fill="black" stroke="black" points="165.5,-118.1 162,-108.1 158.5,-118.1 165.5,-118.1"/>
</g>
</g>
</svg>
