<?xml version="1.0" encoding="UTF-8" standalone="no"?>
<!DOCTYPE svg PUBLIC "-//W3C//DTD SVG 1.1//EN"
 "http://www.w3.org/Graphics/SVG/1.1/DTD/svg11.dtd">
<!-- Generated by graphviz version 2.47.3 (20210619.1520)
 -->
<!-- Title: GATKSVPipelineSingleSample Pages: 1 -->
<svg width="1903pt" height="1860pt"
 viewBox="0.00 0.00 1902.95 1860.00" xmlns="http://www.w3.org/2000/svg" xmlns:xlink="http://www.w3.org/1999/xlink">
<g id="graph0" class="graph" transform="scale(1 1) rotate(0) translate(4 1856)">
<title>GATKSVPipelineSingleSample</title>
<polygon fill="white" stroke="transparent" points="-4,4 -4,-1856 1898.95,-1856 1898.95,4 -4,4"/>
<g id="clust4" class="cluster">
<title>cluster_1</title>
<polygon fill="white" stroke="black" stroke-dasharray="5,2" points="1160.84,-1784 1160.84,-1844 1458.84,-1844 1458.84,-1784 1160.84,-1784"/>
</g>
<g id="clust5" class="cluster">
<title>cluster_3</title>
<polygon fill="white" stroke="black" stroke-dasharray="5,2" points="441.84,-1400 441.84,-1452 755.84,-1452 755.84,-1400 441.84,-1400"/>
</g>
<g id="clust1" class="cluster">
<title>cluster_0</title>
<polygon fill="white" stroke="black" stroke-dasharray="5,2" points="763.84,-1400 763.84,-1452 1059.84,-1452 1059.84,-1400 763.84,-1400"/>
</g>
<g id="clust2" class="cluster">
<title>cluster_4</title>
<polygon fill="white" stroke="black" stroke-dasharray="5,2" points="1067.84,-1400 1067.84,-1452 1355.84,-1452 1355.84,-1400 1067.84,-1400"/>
</g>
<g id="clust3" class="cluster">
<title>cluster_2</title>
<polygon fill="white" stroke="black" stroke-dasharray="5,2" points="1363.84,-1400 1363.84,-1452 1681.84,-1452 1681.84,-1400 1363.84,-1400"/>
</g>
<!-- CALL_Module00a -->
<g id="node1" class="node">
<title>CALL_Module00a</title>
<ellipse fill="none" stroke="black" cx="1380.84" cy="-1814" rx="66.1" ry="18"/>
<ellipse fill="none" stroke="black" cx="1380.84" cy="-1814" rx="70.09" ry="22"/>
<text text-anchor="middle" x="1380.84" y="-1810.3" font-family="Times,serif" font-size="14.00">call Module00a</text>
</g>
<!-- CALL_SingleSampleMetrics -->
<g id="node2" class="node">
<title>CALL_SingleSampleMetrics</title>
<ellipse fill="none" stroke="black" cx="1017.84" cy="-94" rx="102.87" ry="18"/>
<ellipse fill="none" stroke="black" cx="1017.84" cy="-94" rx="106.88" ry="22"/>
<text text-anchor="middle" x="1017.84" y="-90.3" font-family="Times,serif" font-size="14.00">call SingleSampleMetrics</text>
</g>
<!-- CALL_Module00a&#45;&gt;CALL_SingleSampleMetrics -->
<g id="edge1" class="edge">
<title>CALL_Module00a&#45;&gt;CALL_SingleSampleMetrics</title>
<path fill="none" stroke="black" d="M1445.62,-1805.15C1575.16,-1787.63 1853.84,-1740.06 1853.84,-1655 1853.84,-1655 1853.84,-1655 1853.84,-245 1853.84,-183.85 2034.25,-242.18 1630.84,-152 1460.65,-113.95 1258.39,-101.25 1134.07,-97.04"/>
<polygon fill="black" stroke="black" points="1133.89,-93.53 1123.78,-96.71 1133.66,-100.53 1133.89,-93.53"/>
</g>
<!-- CALL_Module00c -->
<g id="node5" class="node">
<title>CALL_Module00c</title>
<ellipse fill="none" stroke="black" cx="1380.84" cy="-1654" rx="66.1" ry="18"/>
<ellipse fill="none" stroke="black" cx="1380.84" cy="-1654" rx="70.09" ry="22"/>
<text text-anchor="middle" x="1380.84" y="-1650.3" font-family="Times,serif" font-size="14.00">call Module00c</text>
</g>
<!-- CALL_Module00a&#45;&gt;CALL_Module00c -->
<g id="edge11" class="edge">
<title>CALL_Module00a&#45;&gt;CALL_Module00c</title>
<path fill="none" stroke="black" d="M1366.39,-1792.4C1359.96,-1782 1353.12,-1768.88 1349.84,-1756 1345.02,-1737.05 1345.02,-1730.95 1349.84,-1712 1352.25,-1702.54 1356.58,-1692.95 1361.25,-1684.41"/>
<polygon fill="black" stroke="black" points="1364.37,-1686 1366.39,-1675.6 1358.33,-1682.48 1364.37,-1686"/>
</g>
<!-- CALL_Module00b -->
<g id="node14" class="node">
<title>CALL_Module00b</title>
<ellipse fill="none" stroke="black" cx="1429.84" cy="-1734" rx="66.89" ry="18"/>
<ellipse fill="none" stroke="black" cx="1429.84" cy="-1734" rx="70.89" ry="22"/>
<text text-anchor="middle" x="1429.84" y="-1730.3" font-family="Times,serif" font-size="14.00">call Module00b</text>
</g>
<!-- CALL_Module00a&#45;&gt;CALL_Module00b -->
<g id="edge44" class="edge">
<title>CALL_Module00a&#45;&gt;CALL_Module00b</title>
<path fill="none" stroke="black" d="M1393.97,-1792.1C1399.34,-1783.55 1405.65,-1773.51 1411.47,-1764.25"/>
<polygon fill="black" stroke="black" points="1414.49,-1766.02 1416.85,-1755.69 1408.56,-1762.3 1414.49,-1766.02"/>
</g>
<!-- CALL_SampleFilterMetrics -->
<g id="node15" class="node">
<title>CALL_SampleFilterMetrics</title>
<ellipse fill="none" stroke="black" cx="1189.84" cy="-1654" rx="98.59" ry="18"/>
<ellipse fill="none" stroke="black" cx="1189.84" cy="-1654" rx="102.58" ry="22"/>
<text text-anchor="middle" x="1189.84" y="-1650.3" font-family="Times,serif" font-size="14.00">call SampleFilterMetrics</text>
</g>
<!-- CALL_Module00a&#45;&gt;CALL_SampleFilterMetrics -->
<g id="edge26" class="edge">
<title>CALL_Module00a&#45;&gt;CALL_SampleFilterMetrics</title>
<path fill="none" stroke="black" d="M1356.65,-1792.99C1322.63,-1764.85 1260.57,-1713.51 1222.49,-1682"/>
<polygon fill="black" stroke="black" points="1224.68,-1679.28 1214.74,-1675.6 1220.22,-1684.67 1224.68,-1679.28"/>
</g>
<!-- CALL_SingleSampleQC -->
<g id="node25" class="node">
<title>CALL_SingleSampleQC</title>
<ellipse fill="none" stroke="black" cx="1017.84" cy="-18" rx="87.18" ry="18"/>
<text text-anchor="middle" x="1017.84" y="-14.3" font-family="Times,serif" font-size="14.00">call SingleSampleQC</text>
</g>
<!-- CALL_SingleSampleMetrics&#45;&gt;CALL_SingleSampleQC -->
<g id="edge28" class="edge">
<title>CALL_SingleSampleMetrics&#45;&gt;CALL_SingleSampleQC</title>
<path fill="none" stroke="black" d="M1017.84,-71.99C1017.84,-64.06 1017.84,-54.91 1017.84,-46.48"/>
<polygon fill="black" stroke="black" points="1021.34,-46.31 1017.84,-36.31 1014.34,-46.31 1021.34,-46.31"/>
</g>
<!-- CALL_AggregateTests -->
<g id="node3" class="node">
<title>CALL_AggregateTests</title>
<ellipse fill="none" stroke="black" cx="1208.84" cy="-1130" rx="80.69" ry="18"/>
<text text-anchor="middle" x="1208.84" y="-1126.3" font-family="Times,serif" font-size="14.00">call AggregateTests</text>
</g>
<!-- CALL_RewriteSRCoords -->
<g id="node4" class="node">
<title>CALL_RewriteSRCoords</title>
<ellipse fill="none" stroke="black" cx="1099.84" cy="-1058" rx="89.88" ry="18"/>
<text text-anchor="middle" x="1099.84" y="-1054.3" font-family="Times,serif" font-size="14.00">call RewriteSRCoords</text>
</g>
<!-- CALL_AggregateTests&#45;&gt;CALL_RewriteSRCoords -->
<g id="edge2" class="edge">
<title>CALL_AggregateTests&#45;&gt;CALL_RewriteSRCoords</title>
<path fill="none" stroke="black" d="M1183.56,-1112.76C1168.81,-1103.29 1150,-1091.21 1133.95,-1080.91"/>
<polygon fill="black" stroke="black" points="1135.67,-1077.85 1125.36,-1075.39 1131.89,-1083.74 1135.67,-1077.85"/>
</g>
<!-- CALL_Module04 -->
<g id="node8" class="node">
<title>CALL_Module04</title>
<ellipse fill="none" stroke="black" cx="974.84" cy="-982" rx="62.3" ry="18"/>
<ellipse fill="none" stroke="black" cx="974.84" cy="-982" rx="66.29" ry="22"/>
<text text-anchor="middle" x="974.84" y="-978.3" font-family="Times,serif" font-size="14.00">call Module04</text>
</g>
<!-- CALL_RewriteSRCoords&#45;&gt;CALL_Module04 -->
<g id="edge22" class="edge">
<title>CALL_RewriteSRCoords&#45;&gt;CALL_Module04</title>
<path fill="none" stroke="black" d="M1072.41,-1040.76C1055.54,-1030.77 1033.62,-1017.79 1014.83,-1006.67"/>
<polygon fill="black" stroke="black" points="1016.56,-1003.63 1006.17,-1001.55 1013,-1009.65 1016.56,-1003.63"/>
</g>
<!-- CALL_Module0506 -->
<g id="node6" class="node">
<title>CALL_Module0506</title>
<ellipse fill="none" stroke="black" cx="882.84" cy="-830" rx="71.49" ry="18"/>
<ellipse fill="none" stroke="black" cx="882.84" cy="-830" rx="75.49" ry="22"/>
<text text-anchor="middle" x="882.84" y="-826.3" font-family="Times,serif" font-size="14.00">call Module0506</text>
</g>
<!-- CALL_Module00c&#45;&gt;CALL_Module0506 -->
<g id="edge3" class="edge">
<title>CALL_Module00c&#45;&gt;CALL_Module0506</title>
<path fill="none" stroke="black" d="M1331.89,-1638.16C1322.03,-1635.69 1311.67,-1633.46 1301.84,-1632 1186.92,-1614.97 358.1,-1652.96 256.84,-1596 213.76,-1571.77 195.84,-1552.43 195.84,-1503 195.84,-1503 195.84,-1503 195.84,-981 195.84,-859.24 612.97,-836.16 797.16,-831.9"/>
<polygon fill="black" stroke="black" points="797.43,-835.4 807.36,-831.68 797.28,-828.4 797.43,-835.4"/>
</g>
<!-- CALL_Module01 -->
<g id="node7" class="node">
<title>CALL_Module01</title>
<ellipse fill="none" stroke="black" cx="1280.84" cy="-1502" rx="62.3" ry="18"/>
<ellipse fill="none" stroke="black" cx="1280.84" cy="-1502" rx="66.29" ry="22"/>
<text text-anchor="middle" x="1280.84" y="-1498.3" font-family="Times,serif" font-size="14.00">call Module01</text>
</g>
<!-- CALL_Module00c&#45;&gt;CALL_Module01 -->
<g id="edge4" class="edge">
<title>CALL_Module00c&#45;&gt;CALL_Module01</title>
<path fill="none" stroke="black" d="M1366.94,-1632.14C1349.62,-1606.17 1319.94,-1561.65 1300.36,-1532.27"/>
<polygon fill="black" stroke="black" points="1303.09,-1530.06 1294.63,-1523.68 1297.26,-1533.94 1303.09,-1530.06"/>
</g>
<!-- CALL_Module00c&#45;&gt;CALL_Module04 -->
<g id="edge57" class="edge">
<title>CALL_Module00c&#45;&gt;CALL_Module04</title>
<path fill="none" stroke="black" d="M1331.89,-1638.19C1322.02,-1635.72 1311.67,-1633.48 1301.84,-1632 1099.52,-1601.53 577.3,-1656.48 381.84,-1596 307.63,-1573.04 233.84,-1580.69 233.84,-1503 233.84,-1503 233.84,-1503 233.84,-1129 233.84,-994.62 708.91,-981.83 898.27,-982.07"/>
<polygon fill="black" stroke="black" points="898.42,-985.57 908.43,-982.1 898.44,-978.57 898.42,-985.57"/>
</g>
<!-- CALL_ConvertCNVsWithoutDepthSupportToBNDs -->
<g id="node9" class="node">
<title>CALL_ConvertCNVsWithoutDepthSupportToBNDs</title>
<ellipse fill="none" stroke="black" cx="1231.84" cy="-906" rx="185.77" ry="18"/>
<text text-anchor="middle" x="1231.84" y="-902.3" font-family="Times,serif" font-size="14.00">call ConvertCNVsWithoutDepthSupportToBNDs</text>
</g>
<!-- CALL_Module00c&#45;&gt;CALL_ConvertCNVsWithoutDepthSupportToBNDs -->
<g id="edge47" class="edge">
<title>CALL_Module00c&#45;&gt;CALL_ConvertCNVsWithoutDepthSupportToBNDs</title>
<path fill="none" stroke="black" d="M1451.17,-1651.73C1548.12,-1648.47 1715.77,-1636.9 1758.84,-1596 1789.44,-1566.95 1777.84,-1545.19 1777.84,-1503 1777.84,-1503 1777.84,-1503 1777.84,-1057 1777.84,-974.67 1544.12,-935.86 1382.5,-918.87"/>
<polygon fill="black" stroke="black" points="1382.76,-915.38 1372.45,-917.83 1382.04,-922.34 1382.76,-915.38"/>
</g>
<!-- CALL_SamplesList -->
<g id="node13" class="node">
<title>CALL_SamplesList</title>
<ellipse fill="none" stroke="black" cx="1679.84" cy="-1578" rx="69.59" ry="18"/>
<text text-anchor="middle" x="1679.84" y="-1574.3" font-family="Times,serif" font-size="14.00">call SamplesList</text>
</g>
<!-- CALL_Module00c&#45;&gt;CALL_SamplesList -->
<g id="edge9" class="edge">
<title>CALL_Module00c&#45;&gt;CALL_SamplesList</title>
<path fill="none" stroke="black" d="M1434.64,-1639.68C1487.35,-1626.64 1567.44,-1606.82 1621.62,-1593.41"/>
<polygon fill="black" stroke="black" points="1622.55,-1596.78 1631.42,-1590.98 1620.87,-1589.99 1622.55,-1596.78"/>
</g>
<!-- CALL_SRTest -->
<g id="node20" class="node">
<title>CALL_SRTest</title>
<ellipse fill="none" stroke="black" cx="1568.84" cy="-1206" rx="51.2" ry="18"/>
<ellipse fill="none" stroke="black" cx="1568.84" cy="-1206" rx="55.19" ry="22"/>
<text text-anchor="middle" x="1568.84" y="-1202.3" font-family="Times,serif" font-size="14.00">call SRTest</text>
</g>
<!-- CALL_Module00c&#45;&gt;CALL_SRTest -->
<g id="edge34" class="edge">
<title>CALL_Module00c&#45;&gt;CALL_SRTest</title>
<path fill="none" stroke="black" d="M1430.7,-1638.47C1503.99,-1613.97 1637.38,-1556.57 1685.84,-1452 1722.92,-1371.99 1643.32,-1278.08 1597.78,-1233.31"/>
<polygon fill="black" stroke="black" points="1600.14,-1230.73 1590.51,-1226.3 1595.28,-1235.76 1600.14,-1230.73"/>
</g>
<!-- CALL_FilterLargePESRCallsWithoutRawDepthSupport -->
<g id="node30" class="node">
<title>CALL_FilterLargePESRCallsWithoutRawDepthSupport</title>
<ellipse fill="none" stroke="black" cx="1136.84" cy="-1282" rx="198.47" ry="18"/>
<text text-anchor="middle" x="1136.84" y="-1278.3" font-family="Times,serif" font-size="14.00">call FilterLargePESRCallsWithoutRawDepthSupport</text>
</g>
<!-- CALL_Module00c&#45;&gt;CALL_FilterLargePESRCallsWithoutRawDepthSupport -->
<g id="edge46" class="edge">
<title>CALL_Module00c&#45;&gt;CALL_FilterLargePESRCallsWithoutRawDepthSupport</title>
<path fill="none" stroke="black" d="M1330.51,-1638.53C1321.03,-1636.12 1311.18,-1633.82 1301.84,-1632 1188.63,-1609.97 271.84,-1618.34 271.84,-1503 271.84,-1503 271.84,-1503 271.84,-1425 271.84,-1411.04 278.8,-1407.05 290.84,-1400 400.54,-1335.85 742.6,-1305.15 956.69,-1291.87"/>
<polygon fill="black" stroke="black" points="957.02,-1295.36 966.78,-1291.25 956.59,-1288.37 957.02,-1295.36"/>
</g>
<!-- CALL_MergeSetDup -->
<g id="node33" class="node">
<title>CALL_MergeSetDup</title>
<ellipse fill="none" stroke="black" cx="1431.84" cy="-1578" rx="75.29" ry="18"/>
<text text-anchor="middle" x="1431.84" y="-1574.3" font-family="Times,serif" font-size="14.00">call MergeSetDup</text>
</g>
<!-- CALL_Module00c&#45;&gt;CALL_MergeSetDup -->
<g id="edge58" class="edge">
<title>CALL_Module00c&#45;&gt;CALL_MergeSetDup</title>
<path fill="none" stroke="black" d="M1395.05,-1632.39C1401.03,-1623.7 1408.06,-1613.51 1414.36,-1604.37"/>
<polygon fill="black" stroke="black" points="1417.33,-1606.23 1420.12,-1596.01 1411.56,-1602.26 1417.33,-1606.23"/>
</g>
<!-- CALL_MergeSetDel -->
<g id="node34" class="node">
<title>CALL_MergeSetDel</title>
<ellipse fill="none" stroke="black" cx="1227.84" cy="-1578" rx="73.39" ry="18"/>
<text text-anchor="middle" x="1227.84" y="-1574.3" font-family="Times,serif" font-size="14.00">call MergeSetDel</text>
</g>
<!-- CALL_Module00c&#45;&gt;CALL_MergeSetDel -->
<g id="edge50" class="edge">
<title>CALL_Module00c&#45;&gt;CALL_MergeSetDel</title>
<path fill="none" stroke="black" d="M1343.81,-1635.09C1321.19,-1624.15 1292.23,-1610.14 1268.91,-1598.86"/>
<polygon fill="black" stroke="black" points="1270.15,-1595.57 1259.62,-1594.37 1267.1,-1601.88 1270.15,-1595.57"/>
</g>
<!-- CALL_Module0506&#45;&gt;CALL_SingleSampleMetrics -->
<g id="edge35" class="edge">
<title>CALL_Module0506&#45;&gt;CALL_SingleSampleMetrics</title>
<path fill="none" stroke="black" d="M919.02,-810.4C934.13,-800.87 950.54,-787.9 960.84,-772 982.84,-738.06 979.84,-723.45 979.84,-683 979.84,-683 979.84,-683 979.84,-245 979.84,-202.52 994.34,-155.29 1005.43,-125.38"/>
<polygon fill="black" stroke="black" points="1008.74,-126.53 1009.03,-115.94 1002.2,-124.03 1008.74,-126.53"/>
</g>
<!-- CALL_FilterVcfDepthLt5kb -->
<g id="node21" class="node">
<title>CALL_FilterVcfDepthLt5kb</title>
<ellipse fill="none" stroke="black" cx="850.84" cy="-754" rx="100.98" ry="18"/>
<text text-anchor="middle" x="850.84" y="-750.3" font-family="Times,serif" font-size="14.00">call FilterVcfDepthLt5kb</text>
</g>
<!-- CALL_Module0506&#45;&gt;CALL_FilterVcfDepthLt5kb -->
<g id="edge23" class="edge">
<title>CALL_Module0506&#45;&gt;CALL_FilterVcfDepthLt5kb</title>
<path fill="none" stroke="black" d="M873.76,-807.99C870.21,-799.8 866.11,-790.3 862.36,-781.64"/>
<polygon fill="black" stroke="black" points="865.51,-780.1 858.33,-772.31 859.09,-782.88 865.51,-780.1"/>
</g>
<!-- CALL_GetUniqueNonGenotypedDepthCalls -->
<g id="node31" class="node">
<title>CALL_GetUniqueNonGenotypedDepthCalls</title>
<ellipse fill="none" stroke="black" cx="574.84" cy="-754" rx="157.07" ry="18"/>
<text text-anchor="middle" x="574.84" y="-750.3" font-family="Times,serif" font-size="14.00">call GetUniqueNonGenotypedDepthCalls</text>
</g>
<!-- CALL_Module0506&#45;&gt;CALL_GetUniqueNonGenotypedDepthCalls -->
<g id="edge39" class="edge">
<title>CALL_Module0506&#45;&gt;CALL_GetUniqueNonGenotypedDepthCalls</title>
<path fill="none" stroke="black" d="M825.99,-815.34C776.17,-803.37 703.41,-785.89 649.01,-772.82"/>
<polygon fill="black" stroke="black" points="649.62,-769.37 639.08,-770.43 647.98,-776.17 649.62,-769.37"/>
</g>
<!-- CALL_FilterMelt -->
<g id="node10" class="node">
<title>CALL_FilterMelt</title>
<ellipse fill="none" stroke="black" cx="1285.84" cy="-1426" rx="61.99" ry="18"/>
<text text-anchor="middle" x="1285.84" y="-1422.3" font-family="Times,serif" font-size="14.00">call FilterMelt</text>
</g>
<!-- CALL_Module01&#45;&gt;CALL_FilterMelt -->
<g id="edge16" class="edge">
<title>CALL_Module01&#45;&gt;CALL_FilterMelt</title>
<path fill="none" stroke="black" d="M1282.26,-1479.99C1282.8,-1472.06 1283.42,-1462.91 1283.99,-1454.48"/>
<polygon fill="black" stroke="black" points="1287.49,-1454.53 1284.67,-1444.31 1280.51,-1454.06 1287.49,-1454.53"/>
</g>
<!-- CALL_FilterWham -->
<g id="node12" class="node">
<title>CALL_FilterWham</title>
<ellipse fill="none" stroke="black" cx="1603.84" cy="-1426" rx="69.59" ry="18"/>
<text text-anchor="middle" x="1603.84" y="-1422.3" font-family="Times,serif" font-size="14.00">call FilterWham</text>
</g>
<!-- CALL_Module01&#45;&gt;CALL_FilterWham -->
<g id="edge8" class="edge">
<title>CALL_Module01&#45;&gt;CALL_FilterWham</title>
<path fill="none" stroke="black" d="M1338.92,-1491.17C1388.61,-1482.32 1461.88,-1468.23 1524.84,-1452 1534.25,-1449.57 1544.19,-1446.69 1553.73,-1443.75"/>
<polygon fill="black" stroke="black" points="1555,-1447.03 1563.49,-1440.7 1552.9,-1440.35 1555,-1447.03"/>
</g>
<!-- CALL_FilterDepth -->
<g id="node23" class="node">
<title>CALL_FilterDepth</title>
<ellipse fill="none" stroke="black" cx="365.84" cy="-1426" rx="66.09" ry="18"/>
<text text-anchor="middle" x="365.84" y="-1422.3" font-family="Times,serif" font-size="14.00">call FilterDepth</text>
</g>
<!-- CALL_Module01&#45;&gt;CALL_FilterDepth -->
<g id="edge27" class="edge">
<title>CALL_Module01&#45;&gt;CALL_FilterDepth</title>
<path fill="none" stroke="black" d="M1214.82,-1499.51C1043.22,-1495.27 586.22,-1481.48 437.84,-1452 428.79,-1450.2 419.32,-1447.53 410.34,-1444.59"/>
<polygon fill="black" stroke="black" points="411.42,-1441.26 400.83,-1441.32 409.15,-1447.88 411.42,-1441.26"/>
</g>
<!-- CALL_FilterManta -->
<g id="node29" class="node">
<title>CALL_FilterManta</title>
<ellipse fill="none" stroke="black" cx="679.84" cy="-1426" rx="67.69" ry="18"/>
<text text-anchor="middle" x="679.84" y="-1422.3" font-family="Times,serif" font-size="14.00">call FilterManta</text>
</g>
<!-- CALL_Module01&#45;&gt;CALL_FilterManta -->
<g id="edge31" class="edge">
<title>CALL_Module01&#45;&gt;CALL_FilterManta</title>
<path fill="none" stroke="black" d="M1214.82,-1499.21C1115.28,-1495.51 921.28,-1484.44 759.84,-1452 749.46,-1449.91 738.52,-1446.99 728.18,-1443.88"/>
<polygon fill="black" stroke="black" points="729.07,-1440.5 718.48,-1440.86 726.99,-1447.18 729.07,-1440.5"/>
</g>
<!-- CALL_FilterDelly -->
<g id="node32" class="node">
<title>CALL_FilterDelly</title>
<ellipse fill="none" stroke="black" cx="987.84" cy="-1426" rx="64.19" ry="18"/>
<text text-anchor="middle" x="987.84" y="-1422.3" font-family="Times,serif" font-size="14.00">call FilterDelly</text>
</g>
<!-- CALL_Module01&#45;&gt;CALL_FilterDelly -->
<g id="edge42" class="edge">
<title>CALL_Module01&#45;&gt;CALL_FilterDelly</title>
<path fill="none" stroke="black" d="M1225.18,-1489.96C1181.13,-1480.86 1118.19,-1467.04 1063.84,-1452 1054.8,-1449.5 1045.23,-1446.57 1036.05,-1443.63"/>
<polygon fill="black" stroke="black" points="1036.88,-1440.22 1026.29,-1440.44 1034.71,-1446.87 1036.88,-1440.22"/>
</g>
<!-- CALL_Module04&#45;&gt;CALL_SingleSampleMetrics -->
<g id="edge45" class="edge">
<title>CALL_Module04&#45;&gt;CALL_SingleSampleMetrics</title>
<path fill="none" stroke="black" d="M984.82,-960.18C997.52,-931.7 1017.84,-878.68 1017.84,-831 1017.84,-831 1017.84,-831 1017.84,-245 1017.84,-204.18 1017.84,-157.11 1017.84,-126.75"/>
<polygon fill="black" stroke="black" points="1021.34,-126.36 1017.84,-116.36 1014.34,-126.36 1021.34,-126.36"/>
</g>
<!-- CALL_Module04&#45;&gt;CALL_Module0506 -->
<g id="edge37" class="edge">
<title>CALL_Module04&#45;&gt;CALL_Module0506</title>
<path fill="none" stroke="black" d="M962.05,-960.14C946.21,-934.32 919.12,-890.15 901.1,-860.77"/>
<polygon fill="black" stroke="black" points="904.03,-858.86 895.82,-852.16 898.07,-862.52 904.03,-858.86"/>
</g>
<!-- CALL_Module04&#45;&gt;CALL_ConvertCNVsWithoutDepthSupportToBNDs -->
<g id="edge5" class="edge">
<title>CALL_Module04&#45;&gt;CALL_ConvertCNVsWithoutDepthSupportToBNDs</title>
<path fill="none" stroke="black" d="M1023.48,-966.99C1063.67,-955.42 1121.11,-938.89 1165.5,-926.1"/>
<polygon fill="black" stroke="black" points="1166.7,-929.4 1175.34,-923.27 1164.76,-922.67 1166.7,-929.4"/>
</g>
<!-- CALL_ConvertCNVsWithoutDepthSupportToBNDs&#45;&gt;CALL_SingleSampleMetrics -->
<g id="edge7" class="edge">
<title>CALL_ConvertCNVsWithoutDepthSupportToBNDs&#45;&gt;CALL_SingleSampleMetrics</title>
<path fill="none" stroke="black" d="M1213.61,-887.99C1187.83,-862 1143.84,-809.65 1143.84,-755 1143.84,-755 1143.84,-755 1143.84,-245 1143.84,-191.63 1096.5,-147.33 1059.85,-121.03"/>
<polygon fill="black" stroke="black" points="1061.48,-117.9 1051.28,-115.06 1057.48,-123.65 1061.48,-117.9"/>
</g>
<!-- CALL_ConvertCNVsWithoutDepthSupportToBNDs&#45;&gt;CALL_Module0506 -->
<g id="edge13" class="edge">
<title>CALL_ConvertCNVsWithoutDepthSupportToBNDs&#45;&gt;CALL_Module0506</title>
<path fill="none" stroke="black" d="M1158.26,-889.4C1097.57,-876.53 1012.08,-858.4 952.5,-845.77"/>
<polygon fill="black" stroke="black" points="952.94,-842.28 942.43,-843.63 951.48,-849.13 952.94,-842.28"/>
</g>
<!-- CALL_MergePesrVcfs -->
<g id="node11" class="node">
<title>CALL_MergePesrVcfs</title>
<ellipse fill="none" stroke="black" cx="1136.84" cy="-1354" rx="81.49" ry="18"/>
<text text-anchor="middle" x="1136.84" y="-1350.3" font-family="Times,serif" font-size="14.00">call MergePesrVcfs</text>
</g>
<!-- CALL_FilterMelt&#45;&gt;CALL_MergePesrVcfs -->
<g id="edge6" class="edge">
<title>CALL_FilterMelt&#45;&gt;CALL_MergePesrVcfs</title>
<path fill="none" stroke="black" d="M1254.61,-1410.33C1232.68,-1400.03 1203.11,-1386.13 1179.09,-1374.85"/>
<polygon fill="black" stroke="black" points="1180.38,-1371.59 1169.84,-1370.5 1177.41,-1377.92 1180.38,-1371.59"/>
</g>
<!-- CALL_MergePesrVcfs&#45;&gt;CALL_FilterLargePESRCallsWithoutRawDepthSupport -->
<g id="edge36" class="edge">
<title>CALL_MergePesrVcfs&#45;&gt;CALL_FilterLargePESRCallsWithoutRawDepthSupport</title>
<path fill="none" stroke="black" d="M1136.84,-1335.7C1136.84,-1327.98 1136.84,-1318.71 1136.84,-1310.11"/>
<polygon fill="black" stroke="black" points="1140.34,-1310.1 1136.84,-1300.1 1133.34,-1310.1 1140.34,-1310.1"/>
</g>
<!-- CALL_FilterWham&#45;&gt;CALL_MergePesrVcfs -->
<g id="edge12" class="edge">
<title>CALL_FilterWham&#45;&gt;CALL_MergePesrVcfs</title>
<path fill="none" stroke="black" d="M1564.86,-1411.04C1552.23,-1406.95 1538.07,-1402.83 1524.84,-1400 1422.99,-1378.19 1303.68,-1366.35 1224.52,-1360.37"/>
<polygon fill="black" stroke="black" points="1224.34,-1356.85 1214.11,-1359.6 1223.83,-1363.83 1224.34,-1356.85"/>
</g>
<!-- CALL_SamplesList&#45;&gt;CALL_SRTest -->
<g id="edge24" class="edge">
<title>CALL_SamplesList&#45;&gt;CALL_SRTest</title>
<path fill="none" stroke="black" d="M1691.7,-1559.89C1709.18,-1532.92 1739.84,-1478.33 1739.84,-1427 1739.84,-1427 1739.84,-1427 1739.84,-1353 1739.84,-1312.03 1743.23,-1294.47 1715.84,-1264 1693.65,-1239.31 1659.49,-1225.22 1629.68,-1217.23"/>
<polygon fill="black" stroke="black" points="1630.31,-1213.78 1619.76,-1214.74 1628.61,-1220.57 1630.31,-1213.78"/>
</g>
<!-- CALL_Module00b&#45;&gt;CALL_SingleSampleMetrics -->
<g id="edge56" class="edge">
<title>CALL_Module00b&#45;&gt;CALL_SingleSampleMetrics</title>
<path fill="none" stroke="black" d="M1489.73,-1722.01C1598.15,-1700.39 1815.84,-1648.35 1815.84,-1579 1815.84,-1579 1815.84,-1579 1815.84,-245 1815.84,-175.53 1342.7,-124.11 1125.06,-104.13"/>
<polygon fill="black" stroke="black" points="1125.17,-100.63 1114.9,-103.2 1124.54,-107.6 1125.17,-100.63"/>
</g>
<!-- CALL_Module00b&#45;&gt;CALL_Module00c -->
<g id="edge15" class="edge">
<title>CALL_Module00b&#45;&gt;CALL_Module00c</title>
<path fill="none" stroke="black" d="M1416.71,-1712.1C1411.34,-1703.55 1405.03,-1693.51 1399.22,-1684.25"/>
<polygon fill="black" stroke="black" points="1402.12,-1682.3 1393.84,-1675.69 1396.2,-1686.02 1402.12,-1682.3"/>
</g>
<!-- CALL_Module00b&#45;&gt;CALL_SampleFilterMetrics -->
<g id="edge10" class="edge">
<title>CALL_Module00b&#45;&gt;CALL_SampleFilterMetrics</title>
<path fill="none" stroke="black" d="M1382.43,-1717.59C1345.7,-1705.65 1294.45,-1689 1254.05,-1675.87"/>
<polygon fill="black" stroke="black" points="1254.88,-1672.46 1244.29,-1672.7 1252.72,-1679.12 1254.88,-1672.46"/>
</g>
<!-- CALL_SampleFilterQC -->
<g id="node19" class="node">
<title>CALL_SampleFilterQC</title>
<ellipse fill="none" stroke="black" cx="83.84" cy="-1578" rx="83.69" ry="18"/>
<text text-anchor="middle" x="83.84" y="-1574.3" font-family="Times,serif" font-size="14.00">call SampleFilterQC</text>
</g>
<!-- CALL_SampleFilterMetrics&#45;&gt;CALL_SampleFilterQC -->
<g id="edge18" class="edge">
<title>CALL_SampleFilterMetrics&#45;&gt;CALL_SampleFilterQC</title>
<path fill="none" stroke="black" d="M1087.93,-1651.12C905.62,-1646.88 511.84,-1633.82 181.84,-1596 172.83,-1594.97 163.4,-1593.64 154.09,-1592.19"/>
<polygon fill="black" stroke="black" points="154.5,-1588.71 144.07,-1590.57 153.38,-1595.62 154.5,-1588.71"/>
</g>
<!-- CALL_ResetBothsidesSupportFilter -->
<g id="node16" class="node">
<title>CALL_ResetBothsidesSupportFilter</title>
<ellipse fill="none" stroke="black" cx="780.84" cy="-466" rx="126.98" ry="18"/>
<text text-anchor="middle" x="780.84" y="-462.3" font-family="Times,serif" font-size="14.00">call ResetBothsidesSupportFilter</text>
</g>
<!-- CALL_ResetPESRTGTOverdispersionFilter -->
<g id="node17" class="node">
<title>CALL_ResetPESRTGTOverdispersionFilter</title>
<ellipse fill="none" stroke="black" cx="777.84" cy="-394" rx="155.97" ry="18"/>
<text text-anchor="middle" x="777.84" y="-390.3" font-family="Times,serif" font-size="14.00">call ResetPESRTGTOverdispersionFilter</text>
</g>
<!-- CALL_ResetBothsidesSupportFilter&#45;&gt;CALL_ResetPESRTGTOverdispersionFilter -->
<g id="edge14" class="edge">
<title>CALL_ResetBothsidesSupportFilter&#45;&gt;CALL_ResetPESRTGTOverdispersionFilter</title>
<path fill="none" stroke="black" d="M780.1,-447.7C779.77,-439.98 779.37,-430.71 779,-422.11"/>
<polygon fill="black" stroke="black" points="782.5,-421.95 778.58,-412.1 775.51,-422.25 782.5,-421.95"/>
</g>
<!-- CALL_FilterSample -->
<g id="node27" class="node">
<title>CALL_FilterSample</title>
<ellipse fill="none" stroke="black" cx="747.84" cy="-322" rx="71.49" ry="18"/>
<text text-anchor="middle" x="747.84" y="-318.3" font-family="Times,serif" font-size="14.00">call FilterSample</text>
</g>
<!-- CALL_ResetPESRTGTOverdispersionFilter&#45;&gt;CALL_FilterSample -->
<g id="edge38" class="edge">
<title>CALL_ResetPESRTGTOverdispersionFilter&#45;&gt;CALL_FilterSample</title>
<path fill="none" stroke="black" d="M770.43,-375.7C767.05,-367.81 762.97,-358.3 759.22,-349.55"/>
<polygon fill="black" stroke="black" points="762.33,-347.92 755.17,-340.1 755.9,-350.67 762.33,-347.92"/>
</g>
<!-- CALL_ResetHighSRBackgroundFilter -->
<g id="node18" class="node">
<title>CALL_ResetHighSRBackgroundFilter</title>
<ellipse fill="none" stroke="black" cx="784.84" cy="-538" rx="135.68" ry="18"/>
<text text-anchor="middle" x="784.84" y="-534.3" font-family="Times,serif" font-size="14.00">call ResetHighSRBackgroundFilter</text>
</g>
<!-- CALL_ResetHighSRBackgroundFilter&#45;&gt;CALL_ResetBothsidesSupportFilter -->
<g id="edge17" class="edge">
<title>CALL_ResetHighSRBackgroundFilter&#45;&gt;CALL_ResetBothsidesSupportFilter</title>
<path fill="none" stroke="black" d="M783.85,-519.7C783.41,-511.98 782.88,-502.71 782.39,-494.11"/>
<polygon fill="black" stroke="black" points="785.88,-493.89 781.82,-484.1 778.9,-494.29 785.88,-493.89"/>
</g>
<!-- CALL_SampleFilterQC&#45;&gt;CALL_FilterSample -->
<g id="edge32" class="edge">
<title>CALL_SampleFilterQC&#45;&gt;CALL_FilterSample</title>
<path fill="none" stroke="black" d="M90.98,-1559.79C101.73,-1532.25 120.84,-1476.35 120.84,-1427 120.84,-1427 120.84,-1427 120.84,-465 120.84,-354.32 497.14,-329.91 666.7,-324.52"/>
<polygon fill="black" stroke="black" points="666.94,-328.02 676.83,-324.22 666.73,-321.02 666.94,-328.02"/>
</g>
<!-- CALL_SRTest&#45;&gt;CALL_AggregateTests -->
<g id="edge19" class="edge">
<title>CALL_SRTest&#45;&gt;CALL_AggregateTests</title>
<path fill="none" stroke="black" d="M1520.66,-1195.1C1457.75,-1182.17 1347.29,-1159.46 1276.14,-1144.83"/>
<polygon fill="black" stroke="black" points="1276.43,-1141.32 1265.93,-1142.74 1275.02,-1148.18 1276.43,-1141.32"/>
</g>
<!-- CALL_FilterVcfForCaseSampleGenotype -->
<g id="node22" class="node">
<title>CALL_FilterVcfForCaseSampleGenotype</title>
<ellipse fill="none" stroke="black" cx="800.84" cy="-682" rx="148.37" ry="18"/>
<text text-anchor="middle" x="800.84" y="-678.3" font-family="Times,serif" font-size="14.00">call FilterVcfForCaseSampleGenotype</text>
</g>
<!-- CALL_FilterVcfDepthLt5kb&#45;&gt;CALL_FilterVcfForCaseSampleGenotype -->
<g id="edge20" class="edge">
<title>CALL_FilterVcfDepthLt5kb&#45;&gt;CALL_FilterVcfForCaseSampleGenotype</title>
<path fill="none" stroke="black" d="M838.74,-736.05C832.87,-727.84 825.69,-717.79 819.17,-708.66"/>
<polygon fill="black" stroke="black" points="821.84,-706.38 813.18,-700.28 816.15,-710.45 821.84,-706.38"/>
</g>
<!-- CALL_FilterVcfWithReferencePanelCalls -->
<g id="node26" class="node">
<title>CALL_FilterVcfWithReferencePanelCalls</title>
<ellipse fill="none" stroke="black" cx="796.84" cy="-610" rx="148.67" ry="18"/>
<text text-anchor="middle" x="796.84" y="-606.3" font-family="Times,serif" font-size="14.00">call FilterVcfWithReferencePanelCalls</text>
</g>
<!-- CALL_FilterVcfForCaseSampleGenotype&#45;&gt;CALL_FilterVcfWithReferencePanelCalls -->
<g id="edge29" class="edge">
<title>CALL_FilterVcfForCaseSampleGenotype&#45;&gt;CALL_FilterVcfWithReferencePanelCalls</title>
<path fill="none" stroke="black" d="M799.85,-663.7C799.41,-655.98 798.88,-646.71 798.39,-638.11"/>
<polygon fill="black" stroke="black" points="801.88,-637.89 797.82,-628.1 794.9,-638.29 801.88,-637.89"/>
</g>
<!-- CALL_FilterDepth&#45;&gt;CALL_Module04 -->
<g id="edge21" class="edge">
<title>CALL_FilterDepth&#45;&gt;CALL_Module04</title>
<path fill="none" stroke="black" d="M401.12,-1410.61C474.72,-1380.07 637.84,-1309.4 637.84,-1283 637.84,-1283 637.84,-1283 637.84,-1129 637.84,-1016.19 798.8,-989.57 898.24,-983.89"/>
<polygon fill="black" stroke="black" points="898.45,-987.39 908.26,-983.38 898.1,-980.4 898.45,-987.39"/>
</g>
<!-- CALL_FinalVCFCleanup -->
<g id="node24" class="node">
<title>CALL_FinalVCFCleanup</title>
<ellipse fill="none" stroke="black" cx="717.84" cy="-170" rx="90.18" ry="18"/>
<text text-anchor="middle" x="717.84" y="-166.3" font-family="Times,serif" font-size="14.00">call FinalVCFCleanup</text>
</g>
<!-- CALL_FinalVCFCleanup&#45;&gt;CALL_SingleSampleMetrics -->
<g id="edge25" class="edge">
<title>CALL_FinalVCFCleanup&#45;&gt;CALL_SingleSampleMetrics</title>
<path fill="none" stroke="black" d="M772.17,-155.6C819.52,-143.92 888.7,-126.86 941.59,-113.81"/>
<polygon fill="black" stroke="black" points="942.74,-117.13 951.61,-111.34 941.06,-110.34 942.74,-117.13"/>
</g>
<!-- CALL_FilterVcfWithReferencePanelCalls&#45;&gt;CALL_ResetHighSRBackgroundFilter -->
<g id="edge40" class="edge">
<title>CALL_FilterVcfWithReferencePanelCalls&#45;&gt;CALL_ResetHighSRBackgroundFilter</title>
<path fill="none" stroke="black" d="M793.88,-591.7C792.55,-583.98 790.96,-574.71 789.49,-566.11"/>
<polygon fill="black" stroke="black" points="792.91,-565.37 787.77,-556.1 786.01,-566.55 792.91,-565.37"/>
</g>
<!-- CALL_Module08Annotation -->
<g id="node28" class="node">
<title>CALL_Module08Annotation</title>
<ellipse fill="none" stroke="black" cx="747.84" cy="-246" rx="102.08" ry="18"/>
<ellipse fill="none" stroke="black" cx="747.84" cy="-246" rx="106.08" ry="22"/>
<text text-anchor="middle" x="747.84" y="-242.3" font-family="Times,serif" font-size="14.00">call Module08Annotation</text>
</g>
<!-- CALL_FilterSample&#45;&gt;CALL_Module08Annotation -->
<g id="edge30" class="edge">
<title>CALL_FilterSample&#45;&gt;CALL_Module08Annotation</title>
<path fill="none" stroke="black" d="M747.84,-303.84C747.84,-296.16 747.84,-286.88 747.84,-278.05"/>
<polygon fill="black" stroke="black" points="751.34,-278.03 747.84,-268.03 744.34,-278.03 751.34,-278.03"/>
</g>
<!-- CALL_Module08Annotation&#45;&gt;CALL_FinalVCFCleanup -->
<g id="edge33" class="edge">
<title>CALL_Module08Annotation&#45;&gt;CALL_FinalVCFCleanup</title>
<path fill="none" stroke="black" d="M739.33,-223.99C736,-215.8 732.15,-206.3 728.64,-197.64"/>
<polygon fill="black" stroke="black" points="731.86,-196.27 724.86,-188.31 725.38,-198.9 731.86,-196.27"/>
</g>
<!-- CALL_VcfToBed -->
<g id="node35" class="node">
<title>CALL_VcfToBed</title>
<ellipse fill="none" stroke="black" cx="888.84" cy="-170" rx="63.09" ry="18"/>
<text text-anchor="middle" x="888.84" y="-166.3" font-family="Times,serif" font-size="14.00">call VcfToBed</text>
</g>
<!-- CALL_Module08Annotation&#45;&gt;CALL_VcfToBed -->
<g id="edge53" class="edge">
<title>CALL_Module08Annotation&#45;&gt;CALL_VcfToBed</title>
<path fill="none" stroke="black" d="M785.26,-225.36C805.49,-214.74 830.43,-201.66 850.77,-190.98"/>
<polygon fill="black" stroke="black" points="852.52,-194.01 859.75,-186.27 849.27,-187.82 852.52,-194.01"/>
</g>
<!-- CALL_FilterManta&#45;&gt;CALL_MergePesrVcfs -->
<g id="edge49" class="edge">
<title>CALL_FilterManta&#45;&gt;CALL_MergePesrVcfs</title>
<path fill="none" stroke="black" d="M718.93,-1411.21C731.82,-1407.08 746.32,-1402.89 759.84,-1400 858.08,-1378.98 972.97,-1367.03 1049.86,-1360.81"/>
<polygon fill="black" stroke="black" points="1050.29,-1364.29 1059.99,-1360.01 1049.74,-1357.31 1050.29,-1364.29"/>
</g>
<!-- CALL_FilterLargePESRCallsWithoutRawDepthSupport&#45;&gt;CALL_AggregateTests -->
<g id="edge43" class="edge">
<title>CALL_FilterLargePESRCallsWithoutRawDepthSupport&#45;&gt;CALL_AggregateTests</title>
<path fill="none" stroke="black" d="M1145.1,-1263.79C1157.63,-1237.68 1181.55,-1187.87 1196.25,-1157.23"/>
<polygon fill="black" stroke="black" points="1199.51,-1158.54 1200.68,-1148.01 1193.2,-1155.51 1199.51,-1158.54"/>
</g>
<!-- CALL_FilterLargePESRCallsWithoutRawDepthSupport&#45;&gt;CALL_RewriteSRCoords -->
<g id="edge52" class="edge">
<title>CALL_FilterLargePESRCallsWithoutRawDepthSupport&#45;&gt;CALL_RewriteSRCoords</title>
<path fill="none" stroke="black" d="M1134,-1263.95C1127.61,-1225.61 1112.07,-1132.35 1104.35,-1086.03"/>
<polygon fill="black" stroke="black" points="1107.79,-1085.4 1102.69,-1076.11 1100.89,-1086.55 1107.79,-1085.4"/>
</g>
<!-- CALL_FilterLargePESRCallsWithoutRawDepthSupport&#45;&gt;CALL_SRTest -->
<g id="edge55" class="edge">
<title>CALL_FilterLargePESRCallsWithoutRawDepthSupport&#45;&gt;CALL_SRTest</title>
<path fill="none" stroke="black" d="M1225.31,-1265.85C1309.94,-1251.35 1435.29,-1229.88 1508.86,-1217.28"/>
<polygon fill="black" stroke="black" points="1509.62,-1220.7 1518.89,-1215.56 1508.44,-1213.8 1509.62,-1220.7"/>
</g>
<!-- CALL_GetUniqueNonGenotypedDepthCalls&#45;&gt;CALL_SingleSampleMetrics -->
<g id="edge41" class="edge">
<title>CALL_GetUniqueNonGenotypedDepthCalls&#45;&gt;CALL_SingleSampleMetrics</title>
<path fill="none" stroke="black" d="M576.62,-735.97C579.24,-709.34 583.84,-656.21 583.84,-611 583.84,-611 583.84,-611 583.84,-245 583.84,-200.84 584.4,-179.64 618.84,-152 661.49,-117.77 800.79,-104.09 902.82,-98.63"/>
<polygon fill="black" stroke="black" points="903.08,-102.12 912.89,-98.11 902.72,-95.13 903.08,-102.12"/>
</g>
<!-- CALL_FilterDelly&#45;&gt;CALL_MergePesrVcfs -->
<g id="edge51" class="edge">
<title>CALL_FilterDelly&#45;&gt;CALL_MergePesrVcfs</title>
<path fill="none" stroke="black" d="M1019.44,-1410.15C1041.31,-1399.88 1070.66,-1386.09 1094.55,-1374.87"/>
<polygon fill="black" stroke="black" points="1096.18,-1377.97 1103.74,-1370.55 1093.2,-1371.64 1096.18,-1377.97"/>
</g>
<!-- CALL_MergeSetDup&#45;&gt;CALL_Module01 -->
<g id="edge48" class="edge">
<title>CALL_MergeSetDup&#45;&gt;CALL_Module01</title>
<path fill="none" stroke="black" d="M1400.19,-1561.49C1378.66,-1550.94 1349.85,-1536.82 1325.93,-1525.1"/>
<polygon fill="black" stroke="black" points="1327.21,-1521.83 1316.69,-1520.57 1324.13,-1528.11 1327.21,-1521.83"/>
</g>
<!-- CALL_MergeSetDel&#45;&gt;CALL_Module01 -->
<g id="edge54" class="edge">
<title>CALL_MergeSetDel&#45;&gt;CALL_Module01</title>
<path fill="none" stroke="black" d="M1239.87,-1560.21C1245.87,-1551.83 1253.3,-1541.46 1260.17,-1531.86"/>
<polygon fill="black" stroke="black" points="1263.05,-1533.86 1266.03,-1523.69 1257.36,-1529.78 1263.05,-1533.86"/>
</g>
<!-- CONDITIONAL_0_EXPRESSION -->
<g id="node36" class="node">
<title>CONDITIONAL_0_EXPRESSION</title>
<polygon fill="none" stroke="black" stroke-dasharray="5,2" points="905.43,-1426 872.14,-1444 805.55,-1444 772.25,-1426 805.55,-1408 872.14,-1408 905.43,-1426"/>
<text text-anchor="middle" x="838.84" y="-1422.3" font-family="Times,serif" font-size="14.00">if (use_delly)</text>
</g>
<!-- CONDITIONAL_4_EXPRESSION -->
<g id="node37" class="node">
<title>CONDITIONAL_4_EXPRESSION</title>
<polygon fill="none" stroke="black" stroke-dasharray="5,2" points="1205.93,-1426 1173.39,-1444 1108.3,-1444 1075.76,-1426 1108.3,-1408 1173.39,-1408 1205.93,-1426"/>
<text text-anchor="middle" x="1140.84" y="-1422.3" font-family="Times,serif" font-size="14.00">if (use_melt)</text>
</g>
<!-- CONDITIONAL_2_EXPRESSION -->
<g id="node38" class="node">
<title>CONDITIONAL_2_EXPRESSION</title>
<polygon fill="none" stroke="black" stroke-dasharray="5,2" points="1515.94,-1426 1479.89,-1444 1407.8,-1444 1371.75,-1426 1407.8,-1408 1479.89,-1408 1515.94,-1426"/>
<text text-anchor="middle" x="1443.84" y="-1422.3" font-family="Times,serif" font-size="14.00">if (use_wham)</text>
</g>
<!-- CONDITIONAL_1_EXPRESSION -->
<g id="node39" class="node">
<title>CONDITIONAL_1_EXPRESSION</title>
<polygon fill="none" stroke="black" stroke-dasharray="5,2" points="1292.42,-1814 1261.63,-1832 1200.05,-1832 1169.26,-1814 1200.05,-1796 1261.63,-1796 1292.42,-1814"/>
<text text-anchor="middle" x="1230.84" y="-1810.3" font-family="Times,serif" font-size="14.00">if (run_00a)</text>
</g>
<!-- CONDITIONAL_3_EXPRESSION -->
<g id="node40" class="node">
<title>CONDITIONAL_3_EXPRESSION</title>
<polygon fill="none" stroke="black" stroke-dasharray="5,2" points="593.94,-1426 557.89,-1444 485.8,-1444 449.75,-1426 485.8,-1408 557.89,-1408 593.94,-1426"/>
<text text-anchor="middle" x="521.84" y="-1422.3" font-family="Times,serif" font-size="14.00">if (use_manta)</text>
</g>
</g>
</svg>
