<?xml version="1.0" encoding="UTF-8" standalone="no"?>
<!DOCTYPE svg PUBLIC "-//W3C//DTD SVG 1.1//EN"
 "http://www.w3.org/Graphics/SVG/1.1/DTD/svg11.dtd">
<!-- Generated by graphviz version 2.46.1 (20210213.1702)
 -->
<!-- Title: MELT Pages: 1 -->
<svg width="1256pt" height="212pt"
 viewBox="0.00 0.00 1256.00 212.00" xmlns="http://www.w3.org/2000/svg" xmlns:xlink="http://www.w3.org/1999/xlink">
<g id="graph0" class="graph" transform="scale(1 1) rotate(0) translate(4 208)">
<title>MELT</title>
<polygon fill="white" stroke="transparent" points="-4,4 -4,-208 1252,-208 1252,4 -4,4"/>
<g id="clust1" class="cluster">
<title>cluster_2</title>
<polygon fill="white" stroke="black" stroke-dasharray="5,2" points="8,-64 8,-116 500,-116 500,-64 8,-64"/>
</g>
<g id="clust2" class="cluster">
<title>cluster_0</title>
<polygon fill="white" stroke="black" stroke-dasharray="5,2" points="812,-64 812,-116 1240,-116 1240,-64 812,-64"/>
</g>
<g id="clust3" class="cluster">
<title>cluster_1</title>
<polygon fill="white" stroke="black" stroke-dasharray="5,2" points="358,-136 358,-196 682,-196 682,-136 358,-136"/>
</g>
<!-- CALL_GetMultipleMetrics -->
<g id="node1" class="node">
<title>CALL_GetMultipleMetrics</title>
<ellipse fill="none" stroke="black" cx="395" cy="-90" rx="96.68" ry="18"/>
<text text-anchor="middle" x="395" y="-86.3" font-family="Times,serif" font-size="14.00">call GetMultipleMetrics</text>
</g>
<!-- CALL_RunMELT -->
<g id="node2" class="node">
<title>CALL_RunMELT</title>
<ellipse fill="none" stroke="black" cx="597" cy="-18" rx="64.99" ry="18"/>
<text text-anchor="middle" x="597" y="-14.3" font-family="Times,serif" font-size="14.00">call RunMELT</text>
</g>
<!-- CALL_GetMultipleMetrics&#45;&gt;CALL_RunMELT -->
<g id="edge1" class="edge">
<title>CALL_GetMultipleMetrics&#45;&gt;CALL_RunMELT</title>
<path fill="none" stroke="black" d="M438.83,-73.81C471.15,-62.61 515.11,-47.38 548.48,-35.81"/>
<polygon fill="black" stroke="black" points="549.73,-39.08 558.03,-32.5 547.44,-32.47 549.73,-39.08"/>
</g>
<!-- CALL_FilterHighCoverageIntervals -->
<g id="node3" class="node">
<title>CALL_FilterHighCoverageIntervals</title>
<ellipse fill="none" stroke="black" cx="675" cy="-90" rx="126.98" ry="18"/>
<text text-anchor="middle" x="675" y="-86.3" font-family="Times,serif" font-size="14.00">call FilterHighCoverageIntervals</text>
</g>
<!-- CALL_FilterHighCoverageIntervals&#45;&gt;CALL_RunMELT -->
<g id="edge2" class="edge">
<title>CALL_FilterHighCoverageIntervals&#45;&gt;CALL_RunMELT</title>
<path fill="none" stroke="black" d="M656.12,-72.05C646.1,-63.07 633.65,-51.9 622.77,-42.12"/>
<polygon fill="black" stroke="black" points="624.95,-39.38 615.17,-35.31 620.28,-44.59 624.95,-39.38"/>
</g>
<!-- CALL_CramToBam -->
<g id="node4" class="node">
<title>CALL_CramToBam</title>
<ellipse fill="none" stroke="black" cx="597" cy="-166" rx="72.6" ry="18"/>
<ellipse fill="none" stroke="black" cx="597" cy="-166" rx="76.59" ry="22"/>
<text text-anchor="middle" x="597" y="-162.3" font-family="Times,serif" font-size="14.00">call CramToBam</text>
</g>
<!-- CALL_CramToBam&#45;&gt;CALL_RunMELT -->
<g id="edge4" class="edge">
<title>CALL_CramToBam&#45;&gt;CALL_RunMELT</title>
<path fill="none" stroke="black" d="M564.82,-145.91C554.62,-138.05 544.55,-127.96 539,-116 529.27,-95.04 528.83,-84.75 539,-64 543.58,-54.64 551.15,-46.67 559.34,-40.16"/>
<polygon fill="black" stroke="black" points="561.6,-42.84 567.64,-34.13 557.49,-37.18 561.6,-42.84"/>
</g>
<!-- CALL_CramToBam&#45;&gt;CALL_FilterHighCoverageIntervals -->
<g id="edge3" class="edge">
<title>CALL_CramToBam&#45;&gt;CALL_FilterHighCoverageIntervals</title>
<path fill="none" stroke="black" d="M618.31,-144.78C628.02,-135.57 639.58,-124.61 649.72,-114.99"/>
<polygon fill="black" stroke="black" points="652.3,-117.36 657.14,-107.94 647.48,-112.29 652.3,-117.36"/>
</g>
<!-- CALL_GetWgsMetrics -->
<g id="node5" class="node">
<title>CALL_GetWgsMetrics</title>
<ellipse fill="none" stroke="black" cx="1149" cy="-90" rx="82.59" ry="18"/>
<text text-anchor="middle" x="1149" y="-86.3" font-family="Times,serif" font-size="14.00">call GetWgsMetrics</text>
</g>
<!-- CALL_GetWgsMetrics&#45;&gt;CALL_RunMELT -->
<g id="edge5" class="edge">
<title>CALL_GetWgsMetrics&#45;&gt;CALL_RunMELT</title>
<path fill="none" stroke="black" d="M1103.02,-74.88C1088.42,-70.84 1072.14,-66.78 1057,-64 922.11,-39.25 762.3,-27.49 670.96,-22.41"/>
<polygon fill="black" stroke="black" points="670.89,-18.9 660.71,-21.85 670.51,-25.89 670.89,-18.9"/>
</g>
<!-- CONDITIONAL_2_EXPRESSION -->
<g id="node6" class="node">
<title>CONDITIONAL_2_EXPRESSION</title>
<polygon fill="none" stroke="black" stroke-dasharray="5,2" points="280.17,-90 214.09,-108 81.91,-108 15.83,-90 81.91,-72 214.09,-72 280.17,-90"/>
<text text-anchor="middle" x="148" y="-86.3" font-family="Times,serif" font-size="14.00">if (!(have_multiple_metrics))</text>
</g>
<!-- CONDITIONAL_0_EXPRESSION -->
<g id="node7" class="node">
<title>CONDITIONAL_0_EXPRESSION</title>
<polygon fill="none" stroke="black" stroke-dasharray="5,2" points="1048.15,-90 991.07,-108 876.93,-108 819.85,-90 876.93,-72 991.07,-72 1048.15,-90"/>
<text text-anchor="middle" x="934" y="-86.3" font-family="Times,serif" font-size="14.00">if (!(have_wgs_metrics))</text>
</g>
<!-- CONDITIONAL_1_EXPRESSION -->
<g id="node8" class="node">
<title>CONDITIONAL_1_EXPRESSION</title>
<polygon fill="none" stroke="black" stroke-dasharray="5,2" points="502.09,-166 468.04,-184 399.96,-184 365.91,-166 399.96,-148 468.04,-148 502.09,-166"/>
<text text-anchor="middle" x="434" y="-162.3" font-family="Times,serif" font-size="14.00">if (!(is_bam))</text>
</g>
</g>
</svg>
