<?xml version="1.0" encoding="UTF-8" standalone="no"?>
<!DOCTYPE svg PUBLIC "-//W3C//DTD SVG 1.1//EN"
 "http://www.w3.org/Graphics/SVG/1.1/DTD/svg11.dtd">
<!-- Generated by graphviz version 2.47.3 (20210619.1520)
 -->
<!-- Title: Module01 Pages: 1 -->
<svg width="3508pt" height="84pt"
 viewBox="0.00 0.00 3507.79 84.00" xmlns="http://www.w3.org/2000/svg" xmlns:xlink="http://www.w3.org/1999/xlink">
<g id="graph0" class="graph" transform="scale(1 1) rotate(0) translate(4 80)">
<title>Module01</title>
<polygon fill="white" stroke="transparent" points="-4,4 -4,-80 3503.79,-80 3503.79,4 -4,4"/>
<g id="clust1" class="cluster">
<title>cluster_1</title>
<polygon fill="white" stroke="black" stroke-dasharray="5,2" points="163.79,-8 163.79,-68 977.79,-68 977.79,-8 163.79,-8"/>
</g>
<g id="clust2" class="cluster">
<title>cluster_0</title>
<polygon fill="white" stroke="black" stroke-dasharray="5,2" points="985.79,-8 985.79,-68 1789.79,-68 1789.79,-8 985.79,-8"/>
</g>
<g id="clust3" class="cluster">
<title>cluster_3</title>
<polygon fill="white" stroke="black" stroke-dasharray="5,2" points="1797.79,-8 1797.79,-68 2640.79,-68 2640.79,-8 1797.79,-8"/>
</g>
<g id="clust4" class="cluster">
<title>cluster_2</title>
<polygon fill="white" stroke="black" stroke-dasharray="5,2" points="2648.79,-8 2648.79,-68 3491.79,-68 3491.79,-8 2648.79,-8"/>
</g>
<!-- CALL_ClusterDepth -->
<g id="node1" class="node">
<title>CALL_ClusterDepth</title>
<ellipse fill="none" stroke="black" cx="76.79" cy="-38" rx="72.6" ry="18"/>
<ellipse fill="none" stroke="black" cx="76.79" cy="-38" rx="76.59" ry="22"/>
<text text-anchor="middle" x="76.79" y="-34.3" font-family="Times,serif" font-size="14.00">call ClusterDepth</text>
</g>
<!-- CALL_ClusterPESR_delly -->
<g id="node2" class="node">
<title>CALL_ClusterPESR_delly</title>
<ellipse fill="none" stroke="black" cx="871.79" cy="-38" rx="94.47" ry="18"/>
<ellipse fill="none" stroke="black" cx="871.79" cy="-38" rx="98.48" ry="22"/>
<text text-anchor="middle" x="871.79" y="-34.3" font-family="Times,serif" font-size="14.00">call ClusterPESR_delly</text>
</g>
<!-- CONDITIONAL_1_EXPRESSION -->
<g id="node3" class="node">
<title>CONDITIONAL_1_EXPRESSION</title>
<polygon fill="none" stroke="black" stroke-dasharray="5,2" points="755.67,-38 609.73,-56 317.85,-56 171.91,-38 317.85,-20 609.73,-20 755.67,-38"/>
<text text-anchor="middle" x="463.79" y="-34.3" font-family="Times,serif" font-size="14.00">if ((defined(delly_vcfs) &amp;&amp; (length(select_first([delly_vcfs])) &gt; 0)))</text>
</g>
<!-- CALL_ClusterPESR_melt -->
<g id="node4" class="node">
<title>CALL_ClusterPESR_melt</title>
<ellipse fill="none" stroke="black" cx="1684.79" cy="-38" rx="92.89" ry="18"/>
<ellipse fill="none" stroke="black" cx="1684.79" cy="-38" rx="96.88" ry="22"/>
<text text-anchor="middle" x="1684.79" y="-34.3" font-family="Times,serif" font-size="14.00">call ClusterPESR_melt</text>
</g>
<!-- CONDITIONAL_0_EXPRESSION -->
<g id="node5" class="node">
<title>CONDITIONAL_0_EXPRESSION</title>
<polygon fill="none" stroke="black" stroke-dasharray="5,2" points="1570.17,-38 1425.98,-56 1137.61,-56 993.42,-38 1137.61,-20 1425.98,-20 1570.17,-38"/>
<text text-anchor="middle" x="1281.79" y="-34.3" font-family="Times,serif" font-size="14.00">if ((defined(melt_vcfs) &amp;&amp; (length(select_first([melt_vcfs])) &gt; 0)))</text>
</g>
<!-- CALL_ClusterPESR_manta -->
<g id="node6" class="node">
<title>CALL_ClusterPESR_manta</title>
<ellipse fill="none" stroke="black" cx="2529.79" cy="-38" rx="98.59" ry="18"/>
<ellipse fill="none" stroke="black" cx="2529.79" cy="-38" rx="102.58" ry="22"/>
<text text-anchor="middle" x="2529.79" y="-34.3" font-family="Times,serif" font-size="14.00">call ClusterPESR_manta</text>
</g>
<!-- CONDITIONAL_3_EXPRESSION -->
<g id="node7" class="node">
<title>CONDITIONAL_3_EXPRESSION</title>
<polygon fill="none" stroke="black" stroke-dasharray="5,2" points="2409.69,-38 2258.74,-56 1956.85,-56 1805.9,-38 1956.85,-20 2258.74,-20 2409.69,-38"/>
<text text-anchor="middle" x="2107.79" y="-34.3" font-family="Times,serif" font-size="14.00">if ((defined(manta_vcfs) &amp;&amp; (length(select_first([manta_vcfs])) &gt; 0)))</text>
</g>
<!-- CALL_ClusterPESR_wham -->
<g id="node8" class="node">
<title>CALL_ClusterPESR_wham</title>
<ellipse fill="none" stroke="black" cx="3380.79" cy="-38" rx="98.59" ry="18"/>
<ellipse fill="none" stroke="black" cx="3380.79" cy="-38" rx="102.58" ry="22"/>
<text text-anchor="middle" x="3380.79" y="-34.3" font-family="Times,serif" font-size="14.00">call ClusterPESR_wham</text>
</g>
<!-- CONDITIONAL_2_EXPRESSION -->
<g id="node9" class="node">
<title>CONDITIONAL_2_EXPRESSION</title>
<polygon fill="none" stroke="black" stroke-dasharray="5,2" points="3260.69,-38 3109.74,-56 2807.85,-56 2656.9,-38 2807.85,-20 3109.74,-20 3260.69,-38"/>
<text text-anchor="middle" x="2958.79" y="-34.3" font-family="Times,serif" font-size="14.00">if ((defined(wham_vcfs) &amp;&amp; (length(select_first([wham_vcfs])) &gt; 0)))</text>
</g>
</g>
</svg>
