<?xml version="1.0" encoding="UTF-8" standalone="no"?>
<!DOCTYPE svg PUBLIC "-//W3C//DTD SVG 1.1//EN"
 "http://www.w3.org/Graphics/SVG/1.1/DTD/svg11.dtd">
<!-- Generated by graphviz version 2.46.1 (20210213.1702)
 -->
<!-- Title: Module01 Pages: 1 -->
<svg width="2025pt" height="84pt"
 viewBox="0.00 0.00 2025.00 84.00" xmlns="http://www.w3.org/2000/svg" xmlns:xlink="http://www.w3.org/1999/xlink">
<g id="graph0" class="graph" transform="scale(1 1) rotate(0) translate(4 80)">
<title>Module01</title>
<polygon fill="white" stroke="transparent" points="-4,4 -4,-80 2021,-80 2021,4 -4,4"/>
<g id="clust1" class="cluster">
<title>cluster_2</title>
<polygon fill="white" stroke="black" stroke-dasharray="5,2" points="8,-8 8,-68 472,-68 472,-8 8,-8"/>
</g>
<g id="clust2" class="cluster">
<title>cluster_1</title>
<polygon fill="white" stroke="black" stroke-dasharray="5,2" points="646,-8 646,-68 1110,-68 1110,-8 646,-8"/>
</g>
<g id="clust3" class="cluster">
<title>cluster_0</title>
<polygon fill="white" stroke="black" stroke-dasharray="5,2" points="1118,-8 1118,-68 1563,-68 1563,-8 1118,-8"/>
</g>
<g id="clust4" class="cluster">
<title>cluster_3</title>
<polygon fill="white" stroke="black" stroke-dasharray="5,2" points="1571,-8 1571,-68 2009,-68 2009,-8 1571,-8"/>
</g>
<!-- CALL_ClusterPESR_manta -->
<g id="node1" class="node">
<title>CALL_ClusterPESR_manta</title>
<ellipse fill="none" stroke="black" cx="361" cy="-38" rx="98.59" ry="18"/>
<ellipse fill="none" stroke="black" cx="361" cy="-38" rx="102.58" ry="22"/>
<text text-anchor="middle" x="361" y="-34.3" font-family="Times,serif" font-size="14.00">call ClusterPESR_manta</text>
</g>
<!-- CONDITIONAL_2_EXPRESSION -->
<g id="node2" class="node">
<title>CONDITIONAL_2_EXPRESSION</title>
<polygon fill="none" stroke="black" stroke-dasharray="5,2" points="239.65,-38 183.82,-56 72.18,-56 16.35,-38 72.18,-20 183.82,-20 239.65,-38"/>
<text text-anchor="middle" x="128" y="-34.3" font-family="Times,serif" font-size="14.00">if (defined(manta_vcfs))</text>
</g>
<!-- CALL_ClusterDepth -->
<g id="node3" class="node">
<title>CALL_ClusterDepth</title>
<ellipse fill="none" stroke="black" cx="559" cy="-38" rx="72.6" ry="18"/>
<ellipse fill="none" stroke="black" cx="559" cy="-38" rx="76.59" ry="22"/>
<text text-anchor="middle" x="559" y="-34.3" font-family="Times,serif" font-size="14.00">call ClusterDepth</text>
</g>
<!-- CALL_ClusterPESR_wham -->
<g id="node4" class="node">
<title>CALL_ClusterPESR_wham</title>
<ellipse fill="none" stroke="black" cx="999" cy="-38" rx="98.59" ry="18"/>
<ellipse fill="none" stroke="black" cx="999" cy="-38" rx="102.58" ry="22"/>
<text text-anchor="middle" x="999" y="-34.3" font-family="Times,serif" font-size="14.00">call ClusterPESR_wham</text>
</g>
<!-- CONDITIONAL_1_EXPRESSION -->
<g id="node5" class="node">
<title>CONDITIONAL_1_EXPRESSION</title>
<polygon fill="none" stroke="black" stroke-dasharray="5,2" points="877.65,-38 821.82,-56 710.18,-56 654.35,-38 710.18,-20 821.82,-20 877.65,-38"/>
<text text-anchor="middle" x="766" y="-34.3" font-family="Times,serif" font-size="14.00">if (defined(wham_vcfs))</text>
</g>
<!-- CALL_ClusterPESR_delly -->
<g id="node6" class="node">
<title>CALL_ClusterPESR_delly</title>
<ellipse fill="none" stroke="black" cx="1457" cy="-38" rx="94.47" ry="18"/>
<ellipse fill="none" stroke="black" cx="1457" cy="-38" rx="98.48" ry="22"/>
<text text-anchor="middle" x="1457" y="-34.3" font-family="Times,serif" font-size="14.00">call ClusterPESR_delly</text>
</g>
<!-- CONDITIONAL_0_EXPRESSION -->
<g id="node7" class="node">
<title>CONDITIONAL_0_EXPRESSION</title>
<polygon fill="none" stroke="black" stroke-dasharray="5,2" points="1340.14,-38 1286.57,-56 1179.43,-56 1125.86,-38 1179.43,-20 1286.57,-20 1340.14,-38"/>
<text text-anchor="middle" x="1233" y="-34.3" font-family="Times,serif" font-size="14.00">if (defined(delly_vcfs))</text>
</g>
<!-- CALL_ClusterPESR_melt -->
<g id="node8" class="node">
<title>CALL_ClusterPESR_melt</title>
<ellipse fill="none" stroke="black" cx="1904" cy="-38" rx="92.89" ry="18"/>
<ellipse fill="none" stroke="black" cx="1904" cy="-38" rx="96.88" ry="22"/>
<text text-anchor="middle" x="1904" y="-34.3" font-family="Times,serif" font-size="14.00">call ClusterPESR_melt</text>
</g>
<!-- CONDITIONAL_3_EXPRESSION -->
<g id="node9" class="node">
<title>CONDITIONAL_3_EXPRESSION</title>
<polygon fill="none" stroke="black" stroke-dasharray="5,2" points="1789.14,-38 1736.57,-56 1631.43,-56 1578.86,-38 1631.43,-20 1736.57,-20 1789.14,-38"/>
<text text-anchor="middle" x="1684" y="-34.3" font-family="Times,serif" font-size="14.00">if (defined(melt_vcfs))</text>
</g>
</g>
</svg>
