<?xml version="1.0" encoding="UTF-8" standalone="no"?>
<!DOCTYPE svg PUBLIC "-//W3C//DTD SVG 1.1//EN"
 "http://www.w3.org/Graphics/SVG/1.1/DTD/svg11.dtd">
<!-- Generated by graphviz version 2.47.3 (20210619.1520)
 -->
<!-- Title: Module00c Pages: 1 -->
<svg width="2396pt" height="460pt"
 viewBox="0.00 0.00 2396.00 460.00" xmlns="http://www.w3.org/2000/svg" xmlns:xlink="http://www.w3.org/1999/xlink">
<g id="graph0" class="graph" transform="scale(1 1) rotate(0) translate(4 456)">
<title>Module00c</title>
<polygon fill="white" stroke="transparent" points="-4,4 -4,-456 2392,-456 2392,4 -4,4"/>
<g id="clust1" class="cluster">
<title>cluster_3</title>
<polygon fill="white" stroke="black" stroke-dasharray="5,2" points="610,-224 610,-284 896,-284 896,-224 610,-224"/>
</g>
<g id="clust2" class="cluster">
<title>cluster_1</title>
<polygon fill="white" stroke="black" stroke-dasharray="5,2" points="1138,-304 1138,-364 1766,-364 1766,-304 1138,-304"/>
</g>
<g id="clust3" class="cluster">
<title>cluster_7</title>
<polygon fill="white" stroke="black" stroke-dasharray="5,2" points="1395,-224 1395,-284 1739,-284 1739,-224 1395,-224"/>
</g>
<g id="clust4" class="cluster">
<title>cluster_4</title>
<polygon fill="white" stroke="black" points="228,-152 228,-280 450,-280 450,-152 228,-152"/>
</g>
<g id="clust5" class="cluster">
<title>cluster_0</title>
<polygon fill="white" stroke="black" stroke-dasharray="5,2" points="1972,-304 1972,-364 2380,-364 2380,-304 1972,-304"/>
</g>
<g id="clust6" class="cluster">
<title>cluster_2</title>
<polygon fill="white" stroke="black" stroke-dasharray="5,2" points="830,-384 830,-444 1990,-444 1990,-384 830,-384"/>
</g>
<g id="clust7" class="cluster">
<title>cluster_5</title>
<polygon fill="white" stroke="black" stroke-dasharray="5,2" points="8,-304 8,-364 1130,-364 1130,-304 8,-304"/>
</g>
<g id="clust8" class="cluster">
<title>cluster_6</title>
<polygon fill="white" stroke="black" stroke-dasharray="5,2" points="490,-152 490,-204 1030,-204 1030,-152 490,-152"/>
</g>
<!-- CALL_gCNVCase -->
<g id="node1" class="node">
<title>CALL_gCNVCase</title>
<ellipse fill="none" stroke="black" cx="540" cy="-102" rx="65.78" ry="18"/>
<ellipse fill="none" stroke="black" cx="540" cy="-102" rx="69.79" ry="22"/>
<text text-anchor="middle" x="540" y="-98.3" font-family="Times,serif" font-size="14.00">call gCNVCase</text>
</g>
<!-- CALL_MergeDepth -->
<g id="node2" class="node">
<title>CALL_MergeDepth</title>
<ellipse fill="none" stroke="black" cx="915" cy="-22" rx="70.7" ry="18"/>
<ellipse fill="none" stroke="black" cx="915" cy="-22" rx="74.69" ry="22"/>
<text text-anchor="middle" x="915" y="-18.3" font-family="Times,serif" font-size="14.00">call MergeDepth</text>
</g>
<!-- CALL_gCNVCase&#45;&gt;CALL_MergeDepth -->
<g id="edge1" class="edge">
<title>CALL_gCNVCase&#45;&gt;CALL_MergeDepth</title>
<path fill="none" stroke="black" d="M596.95,-89.15C663.59,-75.29 773.88,-52.35 845.5,-37.46"/>
<polygon fill="black" stroke="black" points="846.26,-40.87 855.34,-35.41 844.83,-34.02 846.26,-40.87"/>
</g>
<!-- CALL_SubsetPedFile -->
<g id="node3" class="node">
<title>CALL_SubsetPedFile</title>
<ellipse fill="none" stroke="black" cx="982" cy="-254" rx="76.09" ry="18"/>
<text text-anchor="middle" x="982" y="-250.3" font-family="Times,serif" font-size="14.00">call SubsetPedFile</text>
</g>
<!-- CALL_CNMOPS -->
<g id="node4" class="node">
<title>CALL_CNMOPS</title>
<ellipse fill="none" stroke="black" cx="1087" cy="-102" rx="62.3" ry="18"/>
<ellipse fill="none" stroke="black" cx="1087" cy="-102" rx="66.29" ry="22"/>
<text text-anchor="middle" x="1087" y="-98.3" font-family="Times,serif" font-size="14.00">call CNMOPS</text>
</g>
<!-- CALL_SubsetPedFile&#45;&gt;CALL_CNMOPS -->
<g id="edge2" class="edge">
<title>CALL_SubsetPedFile&#45;&gt;CALL_CNMOPS</title>
<path fill="none" stroke="black" d="M1013.1,-237.51C1026.99,-229.24 1042.55,-217.88 1053,-204 1068.5,-183.43 1077.2,-155.36 1081.91,-134.03"/>
<polygon fill="black" stroke="black" points="1085.35,-134.67 1083.91,-124.17 1078.49,-133.27 1085.35,-134.67"/>
</g>
<!-- CALL_AddCaseSampleToPed -->
<g id="node16" class="node">
<title>CALL_AddCaseSampleToPed</title>
<ellipse fill="none" stroke="black" cx="915" cy="-178" rx="107.48" ry="18"/>
<text text-anchor="middle" x="915" y="-174.3" font-family="Times,serif" font-size="14.00">call AddCaseSampleToPed</text>
</g>
<!-- CALL_SubsetPedFile&#45;&gt;CALL_AddCaseSampleToPed -->
<g id="edge12" class="edge">
<title>CALL_SubsetPedFile&#45;&gt;CALL_AddCaseSampleToPed</title>
<path fill="none" stroke="black" d="M966.8,-236.21C958.04,-226.53 946.87,-214.2 937.14,-203.46"/>
<polygon fill="black" stroke="black" points="939.68,-201.05 930.38,-195.98 934.49,-205.74 939.68,-201.05"/>
</g>
<!-- CALL_CNMOPSLarge -->
<g id="node17" class="node">
<title>CALL_CNMOPSLarge</title>
<ellipse fill="none" stroke="black" cx="915" cy="-102" rx="83.38" ry="18"/>
<ellipse fill="none" stroke="black" cx="915" cy="-102" rx="87.39" ry="22"/>
<text text-anchor="middle" x="915" y="-98.3" font-family="Times,serif" font-size="14.00">call CNMOPSLarge</text>
</g>
<!-- CALL_SubsetPedFile&#45;&gt;CALL_CNMOPSLarge -->
<g id="edge18" class="edge">
<title>CALL_SubsetPedFile&#45;&gt;CALL_CNMOPSLarge</title>
<path fill="none" stroke="black" d="M1006.53,-236.92C1017.09,-228.51 1028.3,-217.21 1034,-204 1043.16,-182.78 1046.86,-171.2 1034,-152 1024.13,-137.26 1008.93,-126.95 992.66,-119.74"/>
<polygon fill="black" stroke="black" points="993.57,-116.33 982.99,-115.84 990.95,-122.82 993.57,-116.33"/>
</g>
<!-- CALL_CNMOPS&#45;&gt;CALL_MergeDepth -->
<g id="edge13" class="edge">
<title>CALL_CNMOPS&#45;&gt;CALL_MergeDepth</title>
<path fill="none" stroke="black" d="M1049.25,-83.88C1024.04,-72.45 990.65,-57.31 963.48,-44.98"/>
<polygon fill="black" stroke="black" points="964.7,-41.7 954.15,-40.75 961.81,-48.07 964.7,-41.7"/>
</g>
<!-- CALL_MakeBincovMatrix -->
<g id="node5" class="node">
<title>CALL_MakeBincovMatrix</title>
<ellipse fill="none" stroke="black" cx="1022" cy="-334" rx="96.38" ry="18"/>
<ellipse fill="none" stroke="black" cx="1022" cy="-334" rx="100.38" ry="22"/>
<text text-anchor="middle" x="1022" y="-330.3" font-family="Times,serif" font-size="14.00">call MakeBincovMatrix</text>
</g>
<!-- CALL_MakeBincovMatrix&#45;&gt;CALL_CNMOPS -->
<g id="edge6" class="edge">
<title>CALL_MakeBincovMatrix&#45;&gt;CALL_CNMOPS</title>
<path fill="none" stroke="black" d="M1083.49,-316.54C1099.87,-312.3 1117.57,-307.85 1134,-304 1176.01,-294.15 1201.81,-317.51 1229,-284 1274.39,-228.06 1185.35,-161.11 1128.76,-126.42"/>
<polygon fill="black" stroke="black" points="1130.36,-123.3 1119.98,-121.14 1126.75,-129.29 1130.36,-123.3"/>
</g>
<!-- CALL_Ploidy -->
<g id="node6" class="node">
<title>CALL_Ploidy</title>
<ellipse fill="none" stroke="black" cx="835" cy="-254" rx="48.97" ry="18"/>
<ellipse fill="none" stroke="black" cx="835" cy="-254" rx="52.99" ry="22"/>
<text text-anchor="middle" x="835" y="-250.3" font-family="Times,serif" font-size="14.00">call Ploidy</text>
</g>
<!-- CALL_MakeBincovMatrix&#45;&gt;CALL_Ploidy -->
<g id="edge3" class="edge">
<title>CALL_MakeBincovMatrix&#45;&gt;CALL_Ploidy</title>
<path fill="none" stroke="black" d="M973.33,-314.75C950.08,-305.82 921.95,-294.71 897,-284 890.76,-281.32 884.22,-278.4 877.83,-275.47"/>
<polygon fill="black" stroke="black" points="879.15,-272.22 868.61,-271.2 876.21,-278.58 879.15,-272.22"/>
</g>
<!-- CALL_MedianCov -->
<g id="node12" class="node">
<title>CALL_MedianCov</title>
<ellipse fill="none" stroke="black" cx="1148" cy="-254" rx="67.68" ry="18"/>
<ellipse fill="none" stroke="black" cx="1148" cy="-254" rx="71.69" ry="22"/>
<text text-anchor="middle" x="1148" y="-250.3" font-family="Times,serif" font-size="14.00">call MedianCov</text>
</g>
<!-- CALL_MakeBincovMatrix&#45;&gt;CALL_MedianCov -->
<g id="edge8" class="edge">
<title>CALL_MakeBincovMatrix&#45;&gt;CALL_MedianCov</title>
<path fill="none" stroke="black" d="M1054.12,-313.12C1070.64,-302.89 1090.91,-290.34 1108.39,-279.52"/>
<polygon fill="black" stroke="black" points="1110.58,-282.28 1117.24,-274.04 1106.9,-276.33 1110.58,-282.28"/>
</g>
<!-- CALL_MatrixQC -->
<g id="node14" class="node">
<title>CALL_MatrixQC</title>
<ellipse fill="none" stroke="black" cx="1665" cy="-254" rx="62.3" ry="18"/>
<ellipse fill="none" stroke="black" cx="1665" cy="-254" rx="66.29" ry="22"/>
<text text-anchor="middle" x="1665" y="-250.3" font-family="Times,serif" font-size="14.00">call MatrixQC</text>
</g>
<!-- CALL_MakeBincovMatrix&#45;&gt;CALL_MatrixQC -->
<g id="edge19" class="edge">
<title>CALL_MakeBincovMatrix&#45;&gt;CALL_MatrixQC</title>
<path fill="none" stroke="black" d="M1078.79,-315.84C1096.33,-311.2 1115.82,-306.72 1134,-304 1334.63,-273.97 1391.44,-325.57 1590,-284 1599.33,-282.05 1609.02,-279.07 1618.21,-275.76"/>
<polygon fill="black" stroke="black" points="1619.46,-279.03 1627.57,-272.22 1616.98,-272.48 1619.46,-279.03"/>
</g>
<!-- CALL_MakeBincovMatrix&#45;&gt;CALL_CNMOPSLarge -->
<g id="edge17" class="edge">
<title>CALL_MakeBincovMatrix&#45;&gt;CALL_CNMOPSLarge</title>
<path fill="none" stroke="black" d="M965.6,-315.75C948.82,-311.23 930.29,-306.84 913,-304 778.07,-281.87 735.51,-327.86 606,-284 545.29,-263.44 516.25,-260.51 486,-204 475.09,-183.62 470.61,-169.24 486,-152 497.1,-139.55 700.16,-120.73 822.88,-110.41"/>
<polygon fill="black" stroke="black" points="823.36,-113.88 833.03,-109.56 822.77,-106.91 823.36,-113.88"/>
</g>
<!-- CALL_Ploidy&#45;&gt;CALL_AddCaseSampleToPed -->
<g id="edge16" class="edge">
<title>CALL_Ploidy&#45;&gt;CALL_AddCaseSampleToPed</title>
<path fill="none" stroke="black" d="M856.02,-233.56C866.23,-224.12 878.58,-212.69 889.34,-202.74"/>
<polygon fill="black" stroke="black" points="891.87,-205.16 896.84,-195.8 887.12,-200.02 891.87,-205.16"/>
</g>
<!-- CALL_PreprocessPESR -->
<g id="node7" class="node">
<title>CALL_PreprocessPESR</title>
<ellipse fill="none" stroke="black" cx="2297" cy="-414" rx="85.28" ry="18"/>
<ellipse fill="none" stroke="black" cx="2297" cy="-414" rx="89.29" ry="22"/>
<text text-anchor="middle" x="2297" y="-410.3" font-family="Times,serif" font-size="14.00">call PreprocessPESR</text>
</g>
<!-- CALL_TinyResolve -->
<g id="node8" class="node">
<title>CALL_TinyResolve</title>
<ellipse fill="none" stroke="black" cx="2297" cy="-334" rx="70.7" ry="18"/>
<ellipse fill="none" stroke="black" cx="2297" cy="-334" rx="74.69" ry="22"/>
<text text-anchor="middle" x="2297" y="-330.3" font-family="Times,serif" font-size="14.00">call TinyResolve</text>
</g>
<!-- CALL_PreprocessPESR&#45;&gt;CALL_TinyResolve -->
<g id="edge4" class="edge">
<title>CALL_PreprocessPESR&#45;&gt;CALL_TinyResolve</title>
<path fill="none" stroke="black" d="M2297,-391.69C2297,-383.8 2297,-374.68 2297,-366.1"/>
<polygon fill="black" stroke="black" points="2300.5,-366.02 2297,-356.02 2293.5,-366.02 2300.5,-366.02"/>
</g>
<!-- CALL_CondenseReadCounts -->
<g id="node9" class="node">
<title>CALL_CondenseReadCounts</title>
<ellipse fill="none" stroke="black" cx="339" cy="-178" rx="103.18" ry="18"/>
<text text-anchor="middle" x="339" y="-174.3" font-family="Times,serif" font-size="14.00">call CondenseReadCounts</text>
</g>
<!-- CALL_CondenseReadCounts&#45;&gt;CALL_gCNVCase -->
<g id="edge5" class="edge">
<title>CALL_CondenseReadCounts&#45;&gt;CALL_gCNVCase</title>
<path fill="none" stroke="black" d="M381.14,-161.49C411.83,-150.19 453.65,-134.79 486.68,-122.63"/>
<polygon fill="black" stroke="black" points="488.01,-125.87 496.18,-119.13 485.59,-119.3 488.01,-125.87"/>
</g>
<!-- CALL_BAFFromShardedVCF -->
<g id="node10" class="node">
<title>CALL_BAFFromShardedVCF</title>
<ellipse fill="none" stroke="black" cx="1869" cy="-414" rx="108.58" ry="18"/>
<ellipse fill="none" stroke="black" cx="1869" cy="-414" rx="112.58" ry="22"/>
<text text-anchor="middle" x="1869" y="-410.3" font-family="Times,serif" font-size="14.00">call BAFFromShardedVCF</text>
</g>
<!-- CALL_EvidenceMerging -->
<g id="node11" class="node">
<title>CALL_EvidenceMerging</title>
<ellipse fill="none" stroke="black" cx="1869" cy="-334" rx="89.08" ry="18"/>
<ellipse fill="none" stroke="black" cx="1869" cy="-334" rx="93.08" ry="22"/>
<text text-anchor="middle" x="1869" y="-330.3" font-family="Times,serif" font-size="14.00">call EvidenceMerging</text>
</g>
<!-- CALL_BAFFromShardedVCF&#45;&gt;CALL_EvidenceMerging -->
<g id="edge7" class="edge">
<title>CALL_BAFFromShardedVCF&#45;&gt;CALL_EvidenceMerging</title>
<path fill="none" stroke="black" d="M1869,-391.69C1869,-383.8 1869,-374.68 1869,-366.1"/>
<polygon fill="black" stroke="black" points="1872.5,-366.02 1869,-356.02 1865.5,-366.02 1872.5,-366.02"/>
</g>
<!-- CALL_EvidenceMerging&#45;&gt;CALL_MatrixQC -->
<g id="edge10" class="edge">
<title>CALL_EvidenceMerging&#45;&gt;CALL_MatrixQC</title>
<path fill="none" stroke="black" d="M1821.94,-315.01C1790.48,-302.98 1749.09,-287.15 1716.71,-274.77"/>
<polygon fill="black" stroke="black" points="1717.56,-271.35 1706.97,-271.05 1715.06,-277.89 1717.56,-271.35"/>
</g>
<!-- CALL_BAFFromGVCFs -->
<g id="node13" class="node">
<title>CALL_BAFFromGVCFs</title>
<ellipse fill="none" stroke="black" cx="1665" cy="-334" rx="89.08" ry="18"/>
<ellipse fill="none" stroke="black" cx="1665" cy="-334" rx="93.08" ry="22"/>
<text text-anchor="middle" x="1665" y="-330.3" font-family="Times,serif" font-size="14.00">call BAFFromGVCFs</text>
</g>
<!-- CALL_BAFFromGVCFs&#45;&gt;CALL_MatrixQC -->
<g id="edge9" class="edge">
<title>CALL_BAFFromGVCFs&#45;&gt;CALL_MatrixQC</title>
<path fill="none" stroke="black" d="M1665,-311.69C1665,-303.8 1665,-294.68 1665,-286.1"/>
<polygon fill="black" stroke="black" points="1668.5,-286.02 1665,-276.02 1661.5,-286.02 1668.5,-286.02"/>
</g>
<!-- SCATTER_4_VARIABLE_i -->
<g id="node15" class="node">
<title>SCATTER_4_VARIABLE_i</title>
<polygon fill="none" stroke="black" points="429.62,-254 384.31,-272 293.69,-272 248.38,-254 293.69,-236 384.31,-236 429.62,-254"/>
<text text-anchor="middle" x="339" y="-250.3" font-family="Times,serif" font-size="14.00">scatter over Int as i</text>
</g>
<!-- SCATTER_4_VARIABLE_i&#45;&gt;CALL_CondenseReadCounts -->
<g id="edge11" class="edge">
<title>SCATTER_4_VARIABLE_i&#45;&gt;CALL_CondenseReadCounts</title>
<path fill="none" stroke="black" d="M339,-235.84C339,-227.06 339,-216.16 339,-206.27"/>
<polygon fill="black" stroke="black" points="342.5,-206.07 339,-196.07 335.5,-206.07 342.5,-206.07"/>
</g>
<!-- CALL_AddCaseSampleToPed&#45;&gt;CALL_CNMOPS -->
<g id="edge15" class="edge">
<title>CALL_AddCaseSampleToPed&#45;&gt;CALL_CNMOPS</title>
<path fill="none" stroke="black" d="M952.32,-160.94C977.6,-150.07 1011.24,-135.59 1038.58,-123.83"/>
<polygon fill="black" stroke="black" points="1040.16,-126.96 1047.96,-119.8 1037.39,-120.53 1040.16,-126.96"/>
</g>
<!-- CALL_AddCaseSampleToPed&#45;&gt;CALL_CNMOPSLarge -->
<g id="edge20" class="edge">
<title>CALL_AddCaseSampleToPed&#45;&gt;CALL_CNMOPSLarge</title>
<path fill="none" stroke="black" d="M915,-159.84C915,-152.16 915,-142.88 915,-134.05"/>
<polygon fill="black" stroke="black" points="918.5,-134.03 915,-124.03 911.5,-134.03 918.5,-134.03"/>
</g>
<!-- CALL_CNMOPSLarge&#45;&gt;CALL_MergeDepth -->
<g id="edge14" class="edge">
<title>CALL_CNMOPSLarge&#45;&gt;CALL_MergeDepth</title>
<path fill="none" stroke="black" d="M915,-79.69C915,-71.8 915,-62.68 915,-54.1"/>
<polygon fill="black" stroke="black" points="918.5,-54.02 915,-44.02 911.5,-54.02 918.5,-54.02"/>
</g>
<!-- CONDITIONAL_3_EXPRESSION -->
<g id="node18" class="node">
<title>CONDITIONAL_3_EXPRESSION</title>
<polygon fill="none" stroke="black" stroke-dasharray="5,2" points="763.6,-254 727.3,-272 654.7,-272 618.4,-254 654.7,-236 727.3,-236 763.6,-254"/>
<text text-anchor="middle" x="691" y="-250.3" font-family="Times,serif" font-size="14.00">if (run_ploidy)</text>
</g>
<!-- CONDITIONAL_1_EXPRESSION -->
<g id="node19" class="node">
<title>CONDITIONAL_1_EXPRESSION</title>
<polygon fill="none" stroke="black" stroke-dasharray="5,2" points="1554.27,-334 1452.13,-352 1247.87,-352 1145.73,-334 1247.87,-316 1452.13,-316 1554.27,-334"/>
<text text-anchor="middle" x="1350" y="-330.3" font-family="Times,serif" font-size="14.00">if ((!(defined(BAF_files)) &amp;&amp; defined(gvcfs)))</text>
</g>
<!-- CONDITIONAL_7_EXPRESSION -->
<g id="node20" class="node">
<title>CONDITIONAL_7_EXPRESSION</title>
<polygon fill="none" stroke="black" stroke-dasharray="5,2" points="1580.62,-254 1536.31,-272 1447.69,-272 1403.38,-254 1447.69,-236 1536.31,-236 1580.62,-254"/>
<text text-anchor="middle" x="1492" y="-250.3" font-family="Times,serif" font-size="14.00">if (run_matrix_qc)</text>
</g>
<!-- CONDITIONAL_0_EXPRESSION -->
<g id="node21" class="node">
<title>CONDITIONAL_0_EXPRESSION</title>
<polygon fill="none" stroke="black" stroke-dasharray="5,2" points="2203.65,-334 2147.82,-352 2036.18,-352 1980.35,-334 2036.18,-316 2147.82,-316 2203.65,-334"/>
<text text-anchor="middle" x="2092" y="-330.3" font-family="Times,serif" font-size="14.00">if (defined(manta_vcfs))</text>
</g>
<!-- CONDITIONAL_2_EXPRESSION -->
<g id="node22" class="node">
<title>CONDITIONAL_2_EXPRESSION</title>
<polygon fill="none" stroke="black" stroke-dasharray="5,2" points="1738.09,-414 1513.04,-432 1062.96,-432 837.91,-414 1062.96,-396 1513.04,-396 1738.09,-414"/>
<text text-anchor="middle" x="1288" y="-410.3" font-family="Times,serif" font-size="14.00">if (((!(defined(BAF_files)) &amp;&amp; !(defined(gvcfs))) &amp;&amp; (defined(snp_vcfs) || defined(snp_vcfs_shard_list))))</text>
</g>
<!-- CONDITIONAL_5_EXPRESSION -->
<g id="node23" class="node">
<title>CONDITIONAL_5_EXPRESSION</title>
<polygon fill="none" stroke="black" stroke-dasharray="5,2" points="904.08,-334 682.04,-352 237.96,-352 15.92,-334 237.96,-316 682.04,-316 904.08,-334"/>
<text text-anchor="middle" x="460" y="-330.3" font-family="Times,serif" font-size="14.00">if ((defined(ref_panel_bincov_matrix) || !((defined(bincov_matrix) &amp;&amp; defined(bincov_matrix_index)))))</text>
</g>
<!-- CONDITIONAL_6_EXPRESSION -->
<g id="node24" class="node">
<title>CONDITIONAL_6_EXPRESSION</title>
<polygon fill="none" stroke="black" stroke-dasharray="5,2" points="789.69,-178 716.84,-196 571.16,-196 498.31,-178 571.16,-160 716.84,-160 789.69,-178"/>
<text text-anchor="middle" x="644" y="-174.3" font-family="Times,serif" font-size="14.00">if (append_first_sample_to_ped)</text>
</g>
</g>
</svg>
