<?xml version="1.0" encoding="UTF-8" standalone="no"?>
<!DOCTYPE svg PUBLIC "-//W3C//DTD SVG 1.1//EN"
 "http://www.w3.org/Graphics/SVG/1.1/DTD/svg11.dtd">
<!-- Generated by graphviz version 2.46.1 (20210213.1702)
 -->
<!-- Title: Module00b Pages: 1 -->
<svg width="2401pt" height="172pt"
 viewBox="0.00 0.00 2401.00 172.00" xmlns="http://www.w3.org/2000/svg" xmlns:xlink="http://www.w3.org/1999/xlink">
<g id="graph0" class="graph" transform="scale(1 1) rotate(0) translate(4 168)">
<title>Module00b</title>
<polygon fill="white" stroke="transparent" points="-4,4 -4,-168 2397,-168 2397,4 -4,4"/>
<g id="clust1" class="cluster">
<title>cluster_0</title>
<polygon fill="white" stroke="black" stroke-dasharray="5,2" points="404,-80 404,-156 2385,-156 2385,-80 404,-80"/>
</g>
<g id="clust2" class="cluster">
<title>cluster_4</title>
<polygon fill="white" stroke="black" stroke-dasharray="5,2" points="1919,-88 1919,-148 2377,-148 2377,-88 1919,-88"/>
</g>
<g id="clust3" class="cluster">
<title>cluster_1</title>
<polygon fill="white" stroke="black" stroke-dasharray="5,2" points="1481,-88 1481,-148 1911,-148 1911,-88 1481,-88"/>
</g>
<g id="clust4" class="cluster">
<title>cluster_2</title>
<polygon fill="white" stroke="black" stroke-dasharray="5,2" points="1017,-88 1017,-148 1473,-148 1473,-88 1017,-88"/>
</g>
<g id="clust5" class="cluster">
<title>cluster_3</title>
<polygon fill="white" stroke="black" stroke-dasharray="5,2" points="571,-88 571,-148 1009,-148 1009,-88 571,-88"/>
</g>
<g id="clust6" class="cluster">
<title>cluster_5</title>
<polygon fill="white" stroke="black" stroke-dasharray="5,2" points="8,-8 8,-68 294,-68 294,-8 8,-8"/>
</g>
<!-- CALL_MakeBincovMatrix -->
<g id="node1" class="node">
<title>CALL_MakeBincovMatrix</title>
<ellipse fill="none" stroke="black" cx="294" cy="-118" rx="96.38" ry="18"/>
<ellipse fill="none" stroke="black" cx="294" cy="-118" rx="100.38" ry="22"/>
<text text-anchor="middle" x="294" y="-114.3" font-family="Times,serif" font-size="14.00">call MakeBincovMatrix</text>
</g>
<!-- CALL_Ploidy -->
<g id="node2" class="node">
<title>CALL_Ploidy</title>
<ellipse fill="none" stroke="black" cx="233" cy="-38" rx="48.97" ry="18"/>
<ellipse fill="none" stroke="black" cx="233" cy="-38" rx="52.99" ry="22"/>
<text text-anchor="middle" x="233" y="-34.3" font-family="Times,serif" font-size="14.00">call Ploidy</text>
</g>
<!-- CALL_MakeBincovMatrix&#45;&gt;CALL_Ploidy -->
<g id="edge1" class="edge">
<title>CALL_MakeBincovMatrix&#45;&gt;CALL_Ploidy</title>
<path fill="none" stroke="black" d="M277.65,-96.1C270.72,-87.23 262.53,-76.76 255.08,-67.23"/>
<polygon fill="black" stroke="black" points="257.68,-64.87 248.76,-59.15 252.16,-69.19 257.68,-64.87"/>
</g>
<!-- CALL_WGD -->
<g id="node3" class="node">
<title>CALL_WGD</title>
<ellipse fill="none" stroke="black" cx="355" cy="-38" rx="46.61" ry="18"/>
<ellipse fill="none" stroke="black" cx="355" cy="-38" rx="50.59" ry="22"/>
<text text-anchor="middle" x="355" y="-34.3" font-family="Times,serif" font-size="14.00">call WGD</text>
</g>
<!-- CALL_MakeBincovMatrix&#45;&gt;CALL_WGD -->
<g id="edge2" class="edge">
<title>CALL_MakeBincovMatrix&#45;&gt;CALL_WGD</title>
<path fill="none" stroke="black" d="M310.35,-96.1C317.28,-87.23 325.47,-76.76 332.92,-67.23"/>
<polygon fill="black" stroke="black" points="335.84,-69.19 339.24,-59.15 330.32,-64.87 335.84,-69.19"/>
</g>
<!-- CONDITIONAL_0_EXPRESSION -->
<g id="node4" class="node">
<title>CONDITIONAL_0_EXPRESSION</title>
<polygon fill="none" stroke="black" stroke-dasharray="5,2" points="560.1,-118 523.05,-136 448.95,-136 411.9,-118 448.95,-100 523.05,-100 560.1,-118"/>
<text text-anchor="middle" x="486" y="-114.3" font-family="Times,serif" font-size="14.00">if (run_vcf_qc)</text>
</g>
<!-- CALL_RawVcfQC_Wham -->
<g id="node5" class="node">
<title>CALL_RawVcfQC_Wham</title>
<ellipse fill="none" stroke="black" cx="2269" cy="-118" rx="96.38" ry="18"/>
<ellipse fill="none" stroke="black" cx="2269" cy="-118" rx="100.38" ry="22"/>
<text text-anchor="middle" x="2269" y="-114.3" font-family="Times,serif" font-size="14.00">call RawVcfQC_Wham</text>
</g>
<!-- CONDITIONAL_4_EXPRESSION -->
<g id="node6" class="node">
<title>CONDITIONAL_4_EXPRESSION</title>
<polygon fill="none" stroke="black" stroke-dasharray="5,2" points="2150.65,-118 2094.82,-136 1983.18,-136 1927.35,-118 1983.18,-100 2094.82,-100 2150.65,-118"/>
<text text-anchor="middle" x="2039" y="-114.3" font-family="Times,serif" font-size="14.00">if (defined(wham_vcfs))</text>
</g>
<!-- CALL_RawVcfQC_Melt -->
<g id="node7" class="node">
<title>CALL_RawVcfQC_Melt</title>
<ellipse fill="none" stroke="black" cx="1810" cy="-118" rx="89.08" ry="18"/>
<ellipse fill="none" stroke="black" cx="1810" cy="-118" rx="93.08" ry="22"/>
<text text-anchor="middle" x="1810" y="-114.3" font-family="Times,serif" font-size="14.00">call RawVcfQC_Melt</text>
</g>
<!-- CONDITIONAL_1_EXPRESSION -->
<g id="node8" class="node">
<title>CONDITIONAL_1_EXPRESSION</title>
<polygon fill="none" stroke="black" stroke-dasharray="5,2" points="1699.14,-118 1646.57,-136 1541.43,-136 1488.86,-118 1541.43,-100 1646.57,-100 1699.14,-118"/>
<text text-anchor="middle" x="1594" y="-114.3" font-family="Times,serif" font-size="14.00">if (defined(melt_vcfs))</text>
</g>
<!-- CALL_RawVcfQC_Manta -->
<g id="node9" class="node">
<title>CALL_RawVcfQC_Manta</title>
<ellipse fill="none" stroke="black" cx="1366" cy="-118" rx="94.79" ry="18"/>
<ellipse fill="none" stroke="black" cx="1366" cy="-118" rx="98.78" ry="22"/>
<text text-anchor="middle" x="1366" y="-114.3" font-family="Times,serif" font-size="14.00">call RawVcfQC_Manta</text>
</g>
<!-- CONDITIONAL_2_EXPRESSION -->
<g id="node10" class="node">
<title>CONDITIONAL_2_EXPRESSION</title>
<polygon fill="none" stroke="black" stroke-dasharray="5,2" points="1248.65,-118 1192.82,-136 1081.18,-136 1025.35,-118 1081.18,-100 1192.82,-100 1248.65,-118"/>
<text text-anchor="middle" x="1137" y="-114.3" font-family="Times,serif" font-size="14.00">if (defined(manta_vcfs))</text>
</g>
<!-- CALL_RawVcfQC_Delly -->
<g id="node11" class="node">
<title>CALL_RawVcfQC_Delly</title>
<ellipse fill="none" stroke="black" cx="906" cy="-118" rx="90.98" ry="18"/>
<ellipse fill="none" stroke="black" cx="906" cy="-118" rx="94.98" ry="22"/>
<text text-anchor="middle" x="906" y="-114.3" font-family="Times,serif" font-size="14.00">call RawVcfQC_Delly</text>
</g>
<!-- CONDITIONAL_3_EXPRESSION -->
<g id="node12" class="node">
<title>CONDITIONAL_3_EXPRESSION</title>
<polygon fill="none" stroke="black" stroke-dasharray="5,2" points="793.14,-118 739.57,-136 632.43,-136 578.86,-118 632.43,-100 739.57,-100 793.14,-118"/>
<text text-anchor="middle" x="686" y="-114.3" font-family="Times,serif" font-size="14.00">if (defined(delly_vcfs))</text>
</g>
<!-- CONDITIONAL_5_EXPRESSION -->
<g id="node13" class="node">
<title>CONDITIONAL_5_EXPRESSION</title>
<polygon fill="none" stroke="black" stroke-dasharray="5,2" points="161.6,-38 125.3,-56 52.7,-56 16.4,-38 52.7,-20 125.3,-20 161.6,-38"/>
<text text-anchor="middle" x="89" y="-34.3" font-family="Times,serif" font-size="14.00">if (run_ploidy)</text>
</g>
</g>
</svg>
