<?xml version="1.0" encoding="UTF-8" standalone="no"?>
<!DOCTYPE svg PUBLIC "-//W3C//DTD SVG 1.1//EN"
 "http://www.w3.org/Graphics/SVG/1.1/DTD/svg11.dtd">
<!-- Generated by graphviz version 2.46.1 (20210213.1702)
 -->
<!-- Title: Module00c Pages: 1 -->
<svg width="2503pt" height="460pt"
 viewBox="0.00 0.00 2503.00 460.00" xmlns="http://www.w3.org/2000/svg" xmlns:xlink="http://www.w3.org/1999/xlink">
<g id="graph0" class="graph" transform="scale(1 1) rotate(0) translate(4 456)">
<title>Module00c</title>
<polygon fill="white" stroke="transparent" points="-4,4 -4,-456 2499,-456 2499,4 -4,4"/>
<g id="clust1" class="cluster">
<title>cluster_1</title>
<polygon fill="white" stroke="black" stroke-dasharray="5,2" points="568,-384 568,-444 1461,-444 1461,-384 568,-384"/>
</g>
<g id="clust2" class="cluster">
<title>cluster_2</title>
<polygon fill="white" stroke="black" stroke-dasharray="5,2" points="2079,-304 2079,-364 2487,-364 2487,-304 2079,-304"/>
</g>
<g id="clust3" class="cluster">
<title>cluster_7</title>
<polygon fill="white" stroke="black" stroke-dasharray="5,2" points="1177,-224 1177,-284 1521,-284 1521,-224 1177,-224"/>
</g>
<g id="clust4" class="cluster">
<title>cluster_4</title>
<polygon fill="white" stroke="black" points="1529,-152 1529,-280 1751,-280 1751,-152 1529,-152"/>
</g>
<g id="clust5" class="cluster">
<title>cluster_5</title>
<polygon fill="white" stroke="black" stroke-dasharray="5,2" points="597,-152 597,-204 1137,-204 1137,-152 597,-152"/>
</g>
<g id="clust6" class="cluster">
<title>cluster_3</title>
<polygon fill="white" stroke="black" stroke-dasharray="5,2" points="8,-304 8,-364 1130,-364 1130,-304 8,-304"/>
</g>
<g id="clust7" class="cluster">
<title>cluster_6</title>
<polygon fill="white" stroke="black" stroke-dasharray="5,2" points="1443,-304 1443,-364 2071,-364 2071,-304 1443,-304"/>
</g>
<g id="clust8" class="cluster">
<title>cluster_0</title>
<polygon fill="white" stroke="black" stroke-dasharray="5,2" points="797,-224 797,-284 1083,-284 1083,-224 797,-224"/>
</g>
<!-- CALL_gCNVCase -->
<g id="node1" class="node">
<title>CALL_gCNVCase</title>
<ellipse fill="none" stroke="black" cx="1475" cy="-102" rx="65.78" ry="18"/>
<ellipse fill="none" stroke="black" cx="1475" cy="-102" rx="69.79" ry="22"/>
<text text-anchor="middle" x="1475" y="-98.3" font-family="Times,serif" font-size="14.00">call gCNVCase</text>
</g>
<!-- CALL_MergeDepth -->
<g id="node2" class="node">
<title>CALL_MergeDepth</title>
<ellipse fill="none" stroke="black" cx="1157" cy="-22" rx="70.7" ry="18"/>
<ellipse fill="none" stroke="black" cx="1157" cy="-22" rx="74.69" ry="22"/>
<text text-anchor="middle" x="1157" y="-18.3" font-family="Times,serif" font-size="14.00">call MergeDepth</text>
</g>
<!-- CALL_gCNVCase&#45;&gt;CALL_MergeDepth -->
<g id="edge1" class="edge">
<title>CALL_gCNVCase&#45;&gt;CALL_MergeDepth</title>
<path fill="none" stroke="black" d="M1421.42,-87.86C1366.7,-74.44 1281.67,-53.58 1222.88,-39.16"/>
<polygon fill="black" stroke="black" points="1223.49,-35.71 1212.95,-36.72 1221.83,-42.5 1223.49,-35.71"/>
</g>
<!-- CALL_MakeBincovMatrix -->
<g id="node3" class="node">
<title>CALL_MakeBincovMatrix</title>
<ellipse fill="none" stroke="black" cx="1022" cy="-334" rx="96.38" ry="18"/>
<ellipse fill="none" stroke="black" cx="1022" cy="-334" rx="100.38" ry="22"/>
<text text-anchor="middle" x="1022" y="-330.3" font-family="Times,serif" font-size="14.00">call MakeBincovMatrix</text>
</g>
<!-- CALL_Ploidy -->
<g id="node4" class="node">
<title>CALL_Ploidy</title>
<ellipse fill="none" stroke="black" cx="1022" cy="-254" rx="48.97" ry="18"/>
<ellipse fill="none" stroke="black" cx="1022" cy="-254" rx="52.99" ry="22"/>
<text text-anchor="middle" x="1022" y="-250.3" font-family="Times,serif" font-size="14.00">call Ploidy</text>
</g>
<!-- CALL_MakeBincovMatrix&#45;&gt;CALL_Ploidy -->
<g id="edge2" class="edge">
<title>CALL_MakeBincovMatrix&#45;&gt;CALL_Ploidy</title>
<path fill="none" stroke="black" d="M1022,-311.69C1022,-303.8 1022,-294.68 1022,-286.1"/>
<polygon fill="black" stroke="black" points="1025.5,-286.02 1022,-276.02 1018.5,-286.02 1025.5,-286.02"/>
</g>
<!-- CALL_CNMOPS -->
<g id="node8" class="node">
<title>CALL_CNMOPS</title>
<ellipse fill="none" stroke="black" cx="1157" cy="-102" rx="62.3" ry="18"/>
<ellipse fill="none" stroke="black" cx="1157" cy="-102" rx="66.29" ry="22"/>
<text text-anchor="middle" x="1157" y="-98.3" font-family="Times,serif" font-size="14.00">call CNMOPS</text>
</g>
<!-- CALL_MakeBincovMatrix&#45;&gt;CALL_CNMOPS -->
<g id="edge5" class="edge">
<title>CALL_MakeBincovMatrix&#45;&gt;CALL_CNMOPS</title>
<path fill="none" stroke="black" d="M1052.83,-312.96C1064.26,-304.75 1076.88,-294.66 1087,-284 1116.53,-252.89 1125.27,-243.91 1141,-204 1149.81,-181.64 1153.78,-154.68 1155.56,-134.24"/>
<polygon fill="black" stroke="black" points="1159.06,-134.43 1156.31,-124.2 1152.08,-133.91 1159.06,-134.43"/>
</g>
<!-- CALL_MedianCov -->
<g id="node11" class="node">
<title>CALL_MedianCov</title>
<ellipse fill="none" stroke="black" cx="477" cy="-254" rx="67.68" ry="18"/>
<ellipse fill="none" stroke="black" cx="477" cy="-254" rx="71.69" ry="22"/>
<text text-anchor="middle" x="477" y="-250.3" font-family="Times,serif" font-size="14.00">call MedianCov</text>
</g>
<!-- CALL_MakeBincovMatrix&#45;&gt;CALL_MedianCov -->
<g id="edge7" class="edge">
<title>CALL_MakeBincovMatrix&#45;&gt;CALL_MedianCov</title>
<path fill="none" stroke="black" d="M965.9,-315.74C949.04,-311.19 930.4,-306.78 913,-304 759.15,-279.4 715.97,-313.6 563,-284 551.75,-281.82 539.96,-278.54 528.83,-274.96"/>
<polygon fill="black" stroke="black" points="529.85,-271.62 519.26,-271.76 527.63,-278.25 529.85,-271.62"/>
</g>
<!-- CALL_MatrixQC -->
<g id="node13" class="node">
<title>CALL_MatrixQC</title>
<ellipse fill="none" stroke="black" cx="1447" cy="-254" rx="62.3" ry="18"/>
<ellipse fill="none" stroke="black" cx="1447" cy="-254" rx="66.29" ry="22"/>
<text text-anchor="middle" x="1447" y="-250.3" font-family="Times,serif" font-size="14.00">call MatrixQC</text>
</g>
<!-- CALL_MakeBincovMatrix&#45;&gt;CALL_MatrixQC -->
<g id="edge16" class="edge">
<title>CALL_MakeBincovMatrix&#45;&gt;CALL_MatrixQC</title>
<path fill="none" stroke="black" d="M1105.76,-321.76C1205.18,-308.36 1359.21,-287.32 1372,-284 1380.83,-281.71 1390.04,-278.69 1398.86,-275.48"/>
<polygon fill="black" stroke="black" points="1400.13,-278.74 1408.24,-271.94 1397.65,-272.2 1400.13,-278.74"/>
</g>
<!-- CALL_CNMOPSLarge -->
<g id="node15" class="node">
<title>CALL_CNMOPSLarge</title>
<ellipse fill="none" stroke="black" cx="985" cy="-102" rx="83.38" ry="18"/>
<ellipse fill="none" stroke="black" cx="985" cy="-102" rx="87.39" ry="22"/>
<text text-anchor="middle" x="985" y="-98.3" font-family="Times,serif" font-size="14.00">call CNMOPSLarge</text>
</g>
<!-- CALL_MakeBincovMatrix&#45;&gt;CALL_CNMOPSLarge -->
<g id="edge15" class="edge">
<title>CALL_MakeBincovMatrix&#45;&gt;CALL_CNMOPSLarge</title>
<path fill="none" stroke="black" d="M962.85,-316.17C946.75,-311.89 929.27,-307.51 913,-304 767.35,-272.56 676.54,-327.39 593,-204 580.04,-184.86 577.71,-169.33 593,-152 612.39,-130.03 780.62,-115.56 890.3,-108.36"/>
<polygon fill="black" stroke="black" points="890.64,-111.85 900.4,-107.71 890.19,-104.86 890.64,-111.85"/>
</g>
<!-- CALL_AddCaseSampleToPed -->
<g id="node16" class="node">
<title>CALL_AddCaseSampleToPed</title>
<ellipse fill="none" stroke="black" cx="1022" cy="-178" rx="107.48" ry="18"/>
<text text-anchor="middle" x="1022" y="-174.3" font-family="Times,serif" font-size="14.00">call AddCaseSampleToPed</text>
</g>
<!-- CALL_Ploidy&#45;&gt;CALL_AddCaseSampleToPed -->
<g id="edge14" class="edge">
<title>CALL_Ploidy&#45;&gt;CALL_AddCaseSampleToPed</title>
<path fill="none" stroke="black" d="M1022,-231.99C1022,-224.06 1022,-214.91 1022,-206.48"/>
<polygon fill="black" stroke="black" points="1025.5,-206.31 1022,-196.31 1018.5,-206.31 1025.5,-206.31"/>
</g>
<!-- CALL_PreprocessPESR -->
<g id="node5" class="node">
<title>CALL_PreprocessPESR</title>
<ellipse fill="none" stroke="black" cx="2404" cy="-414" rx="85.28" ry="18"/>
<ellipse fill="none" stroke="black" cx="2404" cy="-414" rx="89.29" ry="22"/>
<text text-anchor="middle" x="2404" y="-410.3" font-family="Times,serif" font-size="14.00">call PreprocessPESR</text>
</g>
<!-- CALL_TinyResolve -->
<g id="node6" class="node">
<title>CALL_TinyResolve</title>
<ellipse fill="none" stroke="black" cx="2404" cy="-334" rx="70.7" ry="18"/>
<ellipse fill="none" stroke="black" cx="2404" cy="-334" rx="74.69" ry="22"/>
<text text-anchor="middle" x="2404" y="-330.3" font-family="Times,serif" font-size="14.00">call TinyResolve</text>
</g>
<!-- CALL_PreprocessPESR&#45;&gt;CALL_TinyResolve -->
<g id="edge3" class="edge">
<title>CALL_PreprocessPESR&#45;&gt;CALL_TinyResolve</title>
<path fill="none" stroke="black" d="M2404,-391.69C2404,-383.8 2404,-374.68 2404,-366.1"/>
<polygon fill="black" stroke="black" points="2407.5,-366.02 2404,-356.02 2400.5,-366.02 2407.5,-366.02"/>
</g>
<!-- CALL_CondenseReadCounts -->
<g id="node7" class="node">
<title>CALL_CondenseReadCounts</title>
<ellipse fill="none" stroke="black" cx="1640" cy="-178" rx="103.18" ry="18"/>
<text text-anchor="middle" x="1640" y="-174.3" font-family="Times,serif" font-size="14.00">call CondenseReadCounts</text>
</g>
<!-- CALL_CondenseReadCounts&#45;&gt;CALL_gCNVCase -->
<g id="edge4" class="edge">
<title>CALL_CondenseReadCounts&#45;&gt;CALL_gCNVCase</title>
<path fill="none" stroke="black" d="M1604.2,-160.94C1580.39,-150.27 1548.85,-136.12 1522.9,-124.48"/>
<polygon fill="black" stroke="black" points="1524.17,-121.21 1513.61,-120.32 1521.3,-127.6 1524.17,-121.21"/>
</g>
<!-- CALL_CNMOPS&#45;&gt;CALL_MergeDepth -->
<g id="edge11" class="edge">
<title>CALL_CNMOPS&#45;&gt;CALL_MergeDepth</title>
<path fill="none" stroke="black" d="M1157,-79.69C1157,-71.8 1157,-62.68 1157,-54.1"/>
<polygon fill="black" stroke="black" points="1160.5,-54.02 1157,-44.02 1153.5,-54.02 1160.5,-54.02"/>
</g>
<!-- CALL_BAFFromShardedVCF -->
<g id="node9" class="node">
<title>CALL_BAFFromShardedVCF</title>
<ellipse fill="none" stroke="black" cx="1340" cy="-414" rx="108.58" ry="18"/>
<ellipse fill="none" stroke="black" cx="1340" cy="-414" rx="112.58" ry="22"/>
<text text-anchor="middle" x="1340" y="-410.3" font-family="Times,serif" font-size="14.00">call BAFFromShardedVCF</text>
</g>
<!-- CALL_EvidenceMerging -->
<g id="node10" class="node">
<title>CALL_EvidenceMerging</title>
<ellipse fill="none" stroke="black" cx="1340" cy="-334" rx="89.08" ry="18"/>
<ellipse fill="none" stroke="black" cx="1340" cy="-334" rx="93.08" ry="22"/>
<text text-anchor="middle" x="1340" y="-330.3" font-family="Times,serif" font-size="14.00">call EvidenceMerging</text>
</g>
<!-- CALL_BAFFromShardedVCF&#45;&gt;CALL_EvidenceMerging -->
<g id="edge6" class="edge">
<title>CALL_BAFFromShardedVCF&#45;&gt;CALL_EvidenceMerging</title>
<path fill="none" stroke="black" d="M1340,-391.69C1340,-383.8 1340,-374.68 1340,-366.1"/>
<polygon fill="black" stroke="black" points="1343.5,-366.02 1340,-356.02 1336.5,-366.02 1343.5,-366.02"/>
</g>
<!-- CALL_EvidenceMerging&#45;&gt;CALL_MatrixQC -->
<g id="edge9" class="edge">
<title>CALL_EvidenceMerging&#45;&gt;CALL_MatrixQC</title>
<path fill="none" stroke="black" d="M1367.56,-312.91C1381.22,-302.95 1397.87,-290.82 1412.38,-280.24"/>
<polygon fill="black" stroke="black" points="1414.63,-282.93 1420.64,-274.21 1410.5,-277.27 1414.63,-282.93"/>
</g>
<!-- CALL_BAFFromGVCFs -->
<g id="node12" class="node">
<title>CALL_BAFFromGVCFs</title>
<ellipse fill="none" stroke="black" cx="1970" cy="-334" rx="89.08" ry="18"/>
<ellipse fill="none" stroke="black" cx="1970" cy="-334" rx="93.08" ry="22"/>
<text text-anchor="middle" x="1970" y="-330.3" font-family="Times,serif" font-size="14.00">call BAFFromGVCFs</text>
</g>
<!-- CALL_BAFFromGVCFs&#45;&gt;CALL_MatrixQC -->
<g id="edge8" class="edge">
<title>CALL_BAFFromGVCFs&#45;&gt;CALL_MatrixQC</title>
<path fill="none" stroke="black" d="M1917.56,-315.72C1901.79,-311.17 1884.34,-306.76 1868,-304 1717.44,-278.52 1674.44,-315.4 1525,-284 1515.14,-281.93 1504.86,-278.83 1495.12,-275.42"/>
<polygon fill="black" stroke="black" points="1496.2,-272.09 1485.61,-271.94 1493.79,-278.66 1496.2,-272.09"/>
</g>
<!-- SCATTER_4_VARIABLE_i -->
<g id="node14" class="node">
<title>SCATTER_4_VARIABLE_i</title>
<polygon fill="none" stroke="black" points="1730.62,-254 1685.31,-272 1594.69,-272 1549.38,-254 1594.69,-236 1685.31,-236 1730.62,-254"/>
<text text-anchor="middle" x="1640" y="-250.3" font-family="Times,serif" font-size="14.00">scatter over Int as i</text>
</g>
<!-- SCATTER_4_VARIABLE_i&#45;&gt;CALL_CondenseReadCounts -->
<g id="edge10" class="edge">
<title>SCATTER_4_VARIABLE_i&#45;&gt;CALL_CondenseReadCounts</title>
<path fill="none" stroke="black" d="M1640,-235.84C1640,-227.06 1640,-216.16 1640,-206.27"/>
<polygon fill="black" stroke="black" points="1643.5,-206.07 1640,-196.07 1636.5,-206.07 1643.5,-206.07"/>
</g>
<!-- CALL_CNMOPSLarge&#45;&gt;CALL_MergeDepth -->
<g id="edge12" class="edge">
<title>CALL_CNMOPSLarge&#45;&gt;CALL_MergeDepth</title>
<path fill="none" stroke="black" d="M1025.76,-82.52C1050.53,-71.28 1082.31,-56.87 1108.39,-45.04"/>
<polygon fill="black" stroke="black" points="1110.05,-48.13 1117.71,-40.82 1107.16,-41.76 1110.05,-48.13"/>
</g>
<!-- CALL_AddCaseSampleToPed&#45;&gt;CALL_CNMOPS -->
<g id="edge13" class="edge">
<title>CALL_AddCaseSampleToPed&#45;&gt;CALL_CNMOPS</title>
<path fill="none" stroke="black" d="M1051.96,-160.58C1070.5,-150.41 1094.58,-137.21 1115.01,-126.02"/>
<polygon fill="black" stroke="black" points="1116.72,-129.07 1123.81,-121.19 1113.36,-122.93 1116.72,-129.07"/>
</g>
<!-- CALL_AddCaseSampleToPed&#45;&gt;CALL_CNMOPSLarge -->
<g id="edge17" class="edge">
<title>CALL_AddCaseSampleToPed&#45;&gt;CALL_CNMOPSLarge</title>
<path fill="none" stroke="black" d="M1013.42,-159.84C1009.46,-151.91 1004.64,-142.27 1000.1,-133.19"/>
<polygon fill="black" stroke="black" points="1003.12,-131.41 995.52,-124.03 996.86,-134.54 1003.12,-131.41"/>
</g>
<!-- CONDITIONAL_1_EXPRESSION -->
<g id="node17" class="node">
<title>CONDITIONAL_1_EXPRESSION</title>
<polygon fill="none" stroke="black" stroke-dasharray="5,2" points="1209.91,-414 1051.46,-432 734.54,-432 576.09,-414 734.54,-396 1051.46,-396 1209.91,-414"/>
<text text-anchor="middle" x="893" y="-410.3" font-family="Times,serif" font-size="14.00">if (((!(defined(BAF_files)) &amp;&amp; !(defined(gvcfs))) &amp;&amp; defined(snp_vcfs)))</text>
</g>
<!-- CONDITIONAL_2_EXPRESSION -->
<g id="node18" class="node">
<title>CONDITIONAL_2_EXPRESSION</title>
<polygon fill="none" stroke="black" stroke-dasharray="5,2" points="2310.65,-334 2254.82,-352 2143.18,-352 2087.35,-334 2143.18,-316 2254.82,-316 2310.65,-334"/>
<text text-anchor="middle" x="2199" y="-330.3" font-family="Times,serif" font-size="14.00">if (defined(manta_vcfs))</text>
</g>
<!-- CONDITIONAL_7_EXPRESSION -->
<g id="node19" class="node">
<title>CONDITIONAL_7_EXPRESSION</title>
<polygon fill="none" stroke="black" stroke-dasharray="5,2" points="1362.62,-254 1318.31,-272 1229.69,-272 1185.38,-254 1229.69,-236 1318.31,-236 1362.62,-254"/>
<text text-anchor="middle" x="1274" y="-250.3" font-family="Times,serif" font-size="14.00">if (run_matrix_qc)</text>
</g>
<!-- CONDITIONAL_5_EXPRESSION -->
<g id="node20" class="node">
<title>CONDITIONAL_5_EXPRESSION</title>
<polygon fill="none" stroke="black" stroke-dasharray="5,2" points="896.69,-178 823.84,-196 678.16,-196 605.31,-178 678.16,-160 823.84,-160 896.69,-178"/>
<text text-anchor="middle" x="751" y="-174.3" font-family="Times,serif" font-size="14.00">if (append_first_sample_to_ped)</text>
</g>
<!-- CONDITIONAL_3_EXPRESSION -->
<g id="node21" class="node">
<title>CONDITIONAL_3_EXPRESSION</title>
<polygon fill="none" stroke="black" stroke-dasharray="5,2" points="904.08,-334 682.04,-352 237.96,-352 15.92,-334 237.96,-316 682.04,-316 904.08,-334"/>
<text text-anchor="middle" x="460" y="-330.3" font-family="Times,serif" font-size="14.00">if ((defined(ref_panel_bincov_matrix) || !((defined(bincov_matrix) &amp;&amp; defined(bincov_matrix_index)))))</text>
</g>
<!-- CONDITIONAL_6_EXPRESSION -->
<g id="node22" class="node">
<title>CONDITIONAL_6_EXPRESSION</title>
<polygon fill="none" stroke="black" stroke-dasharray="5,2" points="1859.27,-334 1757.13,-352 1552.87,-352 1450.73,-334 1552.87,-316 1757.13,-316 1859.27,-334"/>
<text text-anchor="middle" x="1655" y="-330.3" font-family="Times,serif" font-size="14.00">if ((!(defined(BAF_files)) &amp;&amp; defined(gvcfs)))</text>
</g>
<!-- CONDITIONAL_0_EXPRESSION -->
<g id="node23" class="node">
<title>CONDITIONAL_0_EXPRESSION</title>
<polygon fill="none" stroke="black" stroke-dasharray="5,2" points="950.6,-254 914.3,-272 841.7,-272 805.4,-254 841.7,-236 914.3,-236 950.6,-254"/>
<text text-anchor="middle" x="878" y="-250.3" font-family="Times,serif" font-size="14.00">if (run_ploidy)</text>
</g>
</g>
</svg>
