<?xml version="1.0" encoding="UTF-8" standalone="no"?>
<!DOCTYPE svg PUBLIC "-//W3C//DTD SVG 1.1//EN"
 "http://www.w3.org/Graphics/SVG/1.1/DTD/svg11.dtd">
<!-- Generated by graphviz version 2.47.3 (20210619.1520)
 -->
<!-- Title: Module00a Pages: 1 -->
<svg width="1622pt" height="252pt"
 viewBox="0.00 0.00 1622.00 252.00" xmlns="http://www.w3.org/2000/svg" xmlns:xlink="http://www.w3.org/1999/xlink">
<g id="graph0" class="graph" transform="scale(1 1) rotate(0) translate(4 248)">
<title>Module00a</title>
<polygon fill="white" stroke="transparent" points="-4,4 -4,-248 1618,-248 1618,4 -4,4"/>
<g id="clust1" class="cluster">
<title>cluster_0</title>
<polygon fill="white" stroke="black" stroke-dasharray="5,2" points="161,-8 161,-76 854,-76 854,-8 161,-8"/>
</g>
<g id="clust2" class="cluster">
<title>cluster_1</title>
<polygon fill="white" stroke="black" stroke-dasharray="5,2" points="327,-16 327,-68 846,-68 846,-16 327,-16"/>
</g>
<g id="clust3" class="cluster">
<title>cluster_4</title>
<polygon fill="white" stroke="black" stroke-dasharray="5,2" points="1314,-88 1314,-148 1580,-148 1580,-88 1314,-88"/>
</g>
<g id="clust4" class="cluster">
<title>cluster_10</title>
<polygon fill="white" stroke="black" stroke-dasharray="5,2" points="652,-88 652,-148 1014,-148 1014,-88 652,-88"/>
</g>
<g id="clust5" class="cluster">
<title>cluster_2</title>
<polygon fill="white" stroke="black" stroke-dasharray="5,2" points="38,-88 38,-148 310,-148 310,-88 38,-88"/>
</g>
<g id="clust6" class="cluster">
<title>cluster_5</title>
<polygon fill="white" stroke="black" stroke-dasharray="5,2" points="350,-88 350,-148 644,-148 644,-88 350,-88"/>
</g>
<g id="clust7" class="cluster">
<title>cluster_7</title>
<polygon fill="white" stroke="black" stroke-dasharray="5,2" points="396,-160 396,-236 1606,-236 1606,-160 396,-160"/>
</g>
<g id="clust8" class="cluster">
<title>cluster_8</title>
<polygon fill="white" stroke="black" stroke-dasharray="5,2" points="1114,-168 1114,-228 1598,-228 1598,-168 1114,-168"/>
</g>
<g id="clust9" class="cluster">
<title>cluster_9</title>
<polygon fill="white" stroke="black" stroke-dasharray="5,2" points="562,-168 562,-228 1106,-228 1106,-168 562,-168"/>
</g>
<g id="clust10" class="cluster">
<title>cluster_6</title>
<polygon fill="white" stroke="black" stroke-dasharray="5,2" points="1022,-88 1022,-148 1306,-148 1306,-88 1022,-88"/>
</g>
<g id="clust11" class="cluster">
<title>cluster_3</title>
<polygon fill="white" stroke="black" stroke-dasharray="5,2" points="8,-172 8,-224 388,-224 388,-172 8,-172"/>
</g>
<!-- CALL_MELT -->
<g id="node1" class="node">
<title>CALL_MELT</title>
<ellipse fill="none" stroke="black" cx="248" cy="-118" rx="50.09" ry="18"/>
<ellipse fill="none" stroke="black" cx="248" cy="-118" rx="54.09" ry="22"/>
<text text-anchor="middle" x="248" y="-114.3" font-family="Times,serif" font-size="14.00">call MELT</text>
</g>
<!-- CALL_DeleteIntermediateFiles -->
<g id="node2" class="node">
<title>CALL_DeleteIntermediateFiles</title>
<ellipse fill="none" stroke="black" cx="728" cy="-42" rx="110.48" ry="18"/>
<text text-anchor="middle" x="728" y="-38.3" font-family="Times,serif" font-size="14.00">call DeleteIntermediateFiles</text>
</g>
<!-- CALL_MELT&#45;&gt;CALL_DeleteIntermediateFiles -->
<g id="edge1" class="edge">
<title>CALL_MELT&#45;&gt;CALL_DeleteIntermediateFiles</title>
<path fill="none" stroke="black" d="M280.4,-100.36C291.41,-95.47 303.98,-90.71 316,-88 442.7,-59.39 479.66,-96.02 608,-76 629.09,-72.71 651.78,-67.04 671.69,-61.33"/>
<polygon fill="black" stroke="black" points="672.91,-64.61 681.52,-58.43 670.94,-57.9 672.91,-64.61"/>
</g>
<!-- CALL_CollectCounts -->
<g id="node3" class="node">
<title>CALL_CollectCounts</title>
<ellipse fill="none" stroke="black" cx="304" cy="-198" rx="76.09" ry="18"/>
<text text-anchor="middle" x="304" y="-194.3" font-family="Times,serif" font-size="14.00">call CollectCounts</text>
</g>
<!-- CALL_CollectCounts&#45;&gt;CALL_MELT -->
<g id="edge2" class="edge">
<title>CALL_CollectCounts&#45;&gt;CALL_MELT</title>
<path fill="none" stroke="black" d="M291.85,-180.08C285.05,-170.6 276.38,-158.53 268.56,-147.63"/>
<polygon fill="black" stroke="black" points="271.19,-145.29 262.51,-139.21 265.5,-149.38 271.19,-145.29"/>
</g>
<!-- CALL_CollectCounts&#45;&gt;CALL_DeleteIntermediateFiles -->
<g id="edge5" class="edge">
<title>CALL_CollectCounts&#45;&gt;CALL_DeleteIntermediateFiles</title>
<path fill="none" stroke="black" d="M308.16,-179.93C315.3,-152.14 330.62,-99.09 346,-88 369.64,-70.96 579.22,-80.56 608,-76 629.09,-72.66 651.77,-66.98 671.68,-61.27"/>
<polygon fill="black" stroke="black" points="672.9,-64.56 681.51,-58.38 670.93,-57.84 672.9,-64.56"/>
</g>
<!-- CALL_Whamg -->
<g id="node4" class="node">
<title>CALL_Whamg</title>
<ellipse fill="none" stroke="black" cx="578" cy="-118" rx="53.89" ry="18"/>
<ellipse fill="none" stroke="black" cx="578" cy="-118" rx="57.89" ry="22"/>
<text text-anchor="middle" x="578" y="-114.3" font-family="Times,serif" font-size="14.00">call Whamg</text>
</g>
<!-- CALL_Whamg&#45;&gt;CALL_DeleteIntermediateFiles -->
<g id="edge3" class="edge">
<title>CALL_Whamg&#45;&gt;CALL_DeleteIntermediateFiles</title>
<path fill="none" stroke="black" d="M612.41,-100.02C634.23,-89.26 662.61,-75.26 685.78,-63.83"/>
<polygon fill="black" stroke="black" points="687.62,-66.83 695.03,-59.26 684.52,-60.55 687.62,-66.83"/>
</g>
<!-- CALL_PESRCollection -->
<g id="node5" class="node">
<title>CALL_PESRCollection</title>
<ellipse fill="none" stroke="black" cx="919" cy="-118" rx="83.38" ry="18"/>
<ellipse fill="none" stroke="black" cx="919" cy="-118" rx="87.39" ry="22"/>
<text text-anchor="middle" x="919" y="-114.3" font-family="Times,serif" font-size="14.00">call PESRCollection</text>
</g>
<!-- CALL_PESRCollection&#45;&gt;CALL_DeleteIntermediateFiles -->
<g id="edge4" class="edge">
<title>CALL_PESRCollection&#45;&gt;CALL_DeleteIntermediateFiles</title>
<path fill="none" stroke="black" d="M872.76,-99.09C844.3,-88.06 807.79,-73.91 778.55,-62.59"/>
<polygon fill="black" stroke="black" points="779.53,-59.21 768.94,-58.86 777,-65.74 779.53,-59.21"/>
</g>
<!-- CALL_Manta -->
<g id="node6" class="node">
<title>CALL_Manta</title>
<ellipse fill="none" stroke="black" cx="1245" cy="-118" rx="48.97" ry="18"/>
<ellipse fill="none" stroke="black" cx="1245" cy="-118" rx="52.99" ry="22"/>
<text text-anchor="middle" x="1245" y="-114.3" font-family="Times,serif" font-size="14.00">call Manta</text>
</g>
<!-- CALL_Manta&#45;&gt;CALL_DeleteIntermediateFiles -->
<g id="edge6" class="edge">
<title>CALL_Manta&#45;&gt;CALL_DeleteIntermediateFiles</title>
<path fill="none" stroke="black" d="M1214.25,-100.11C1204.51,-95.46 1193.54,-90.9 1183,-88 1072.22,-57.57 941.28,-47.17 848.37,-43.87"/>
<polygon fill="black" stroke="black" points="848.48,-40.37 838.37,-43.54 848.25,-47.37 848.48,-40.37"/>
</g>
<!-- CALL_Delly -->
<g id="node7" class="node">
<title>CALL_Delly</title>
<ellipse fill="none" stroke="black" cx="1523" cy="-118" rx="45.49" ry="18"/>
<ellipse fill="none" stroke="black" cx="1523" cy="-118" rx="49.49" ry="22"/>
<text text-anchor="middle" x="1523" y="-114.3" font-family="Times,serif" font-size="14.00">call Delly</text>
</g>
<!-- CALL_Delly&#45;&gt;CALL_DeleteIntermediateFiles -->
<g id="edge7" class="edge">
<title>CALL_Delly&#45;&gt;CALL_DeleteIntermediateFiles</title>
<path fill="none" stroke="black" d="M1494.4,-99.85C1485.31,-95.19 1475,-90.69 1465,-88 1352.13,-57.69 1026.17,-47.73 847.92,-44.51"/>
<polygon fill="black" stroke="black" points="847.77,-41 837.71,-44.33 847.64,-48 847.77,-41"/>
</g>
<!-- CONDITIONAL_1_EXPRESSION -->
<g id="node8" class="node">
<title>CONDITIONAL_1_EXPRESSION</title>
<polygon fill="none" stroke="black" stroke-dasharray="5,2" points="599.17,-42 533.09,-60 400.91,-60 334.83,-42 400.91,-24 533.09,-24 599.17,-42"/>
<text text-anchor="middle" x="467" y="-38.3" font-family="Times,serif" font-size="14.00">if (delete_intermediate_bam)</text>
</g>
<!-- CONDITIONAL_0_EXPRESSION -->
<g id="node9" class="node">
<title>CONDITIONAL_0_EXPRESSION</title>
<polygon fill="none" stroke="black" stroke-dasharray="5,2" points="316.6,-42 279.8,-60 206.2,-60 169.4,-42 206.2,-24 279.8,-24 316.6,-42"/>
<text text-anchor="middle" x="243" y="-38.3" font-family="Times,serif" font-size="14.00">if (!(is_bam_))</text>
</g>
<!-- CONDITIONAL_4_EXPRESSION -->
<g id="node10" class="node">
<title>CONDITIONAL_4_EXPRESSION</title>
<polygon fill="none" stroke="black" stroke-dasharray="5,2" points="1455.59,-118 1422.29,-136 1355.71,-136 1322.41,-118 1355.71,-100 1422.29,-100 1455.59,-118"/>
<text text-anchor="middle" x="1389" y="-114.3" font-family="Times,serif" font-size="14.00">if (run_delly)</text>
</g>
<!-- CONDITIONAL_10_EXPRESSION -->
<g id="node11" class="node">
<title>CONDITIONAL_10_EXPRESSION</title>
<polygon fill="none" stroke="black" stroke-dasharray="5,2" points="814.1,-118 775.55,-136 698.45,-136 659.9,-118 698.45,-100 775.55,-100 814.1,-118"/>
<text text-anchor="middle" x="737" y="-114.3" font-family="Times,serif" font-size="14.00">if (collect_pesr)</text>
</g>
<!-- CONDITIONAL_2_EXPRESSION -->
<g id="node12" class="node">
<title>CONDITIONAL_2_EXPRESSION</title>
<polygon fill="none" stroke="black" stroke-dasharray="5,2" points="176.09,-118 143.54,-136 78.46,-136 45.91,-118 78.46,-100 143.54,-100 176.09,-118"/>
<text text-anchor="middle" x="111" y="-114.3" font-family="Times,serif" font-size="14.00">if (run_melt)</text>
</g>
<!-- CONDITIONAL_5_EXPRESSION -->
<g id="node13" class="node">
<title>CONDITIONAL_5_EXPRESSION</title>
<polygon fill="none" stroke="black" stroke-dasharray="5,2" points="502.09,-118 466.05,-136 393.95,-136 357.91,-118 393.95,-100 466.05,-100 502.09,-118"/>
<text text-anchor="middle" x="430" y="-114.3" font-family="Times,serif" font-size="14.00">if (run_wham)</text>
</g>
<!-- CALL_CramToBam -->
<g id="node14" class="node">
<title>CALL_CramToBam</title>
<ellipse fill="none" stroke="black" cx="1513" cy="-198" rx="72.6" ry="18"/>
<ellipse fill="none" stroke="black" cx="1513" cy="-198" rx="76.59" ry="22"/>
<text text-anchor="middle" x="1513" y="-194.3" font-family="Times,serif" font-size="14.00">call CramToBam</text>
</g>
<!-- CONDITIONAL_8_EXPRESSION -->
<g id="node15" class="node">
<title>CONDITIONAL_8_EXPRESSION</title>
<polygon fill="none" stroke="black" stroke-dasharray="5,2" points="1417.69,-198 1343.85,-216 1196.15,-216 1122.31,-198 1196.15,-180 1343.85,-180 1417.69,-198"/>
<text text-anchor="middle" x="1270" y="-194.3" font-family="Times,serif" font-size="14.00">if (!(revise_base_cram_to_bam))</text>
</g>
<!-- CALL_CramToBamReviseBase -->
<g id="node16" class="node">
<title>CALL_CramToBamReviseBase</title>
<ellipse fill="none" stroke="black" cx="980" cy="-198" rx="113.97" ry="18"/>
<ellipse fill="none" stroke="black" cx="980" cy="-198" rx="117.98" ry="22"/>
<text text-anchor="middle" x="980" y="-194.3" font-family="Times,serif" font-size="14.00">call CramToBamReviseBase</text>
</g>
<!-- CONDITIONAL_9_EXPRESSION -->
<g id="node17" class="node">
<title>CONDITIONAL_9_EXPRESSION</title>
<polygon fill="none" stroke="black" stroke-dasharray="5,2" points="844.18,-198 775.59,-216 638.41,-216 569.82,-198 638.41,-180 775.59,-180 844.18,-198"/>
<text text-anchor="middle" x="707" y="-194.3" font-family="Times,serif" font-size="14.00">if (revise_base_cram_to_bam)</text>
</g>
<!-- CONDITIONAL_7_EXPRESSION -->
<g id="node18" class="node">
<title>CONDITIONAL_7_EXPRESSION</title>
<polygon fill="none" stroke="black" stroke-dasharray="5,2" points="551.6,-198 514.8,-216 441.2,-216 404.4,-198 441.2,-180 514.8,-180 551.6,-198"/>
<text text-anchor="middle" x="478" y="-194.3" font-family="Times,serif" font-size="14.00">if (!(is_bam_))</text>
</g>
<!-- CONDITIONAL_6_EXPRESSION -->
<g id="node19" class="node">
<title>CONDITIONAL_6_EXPRESSION</title>
<polygon fill="none" stroke="black" stroke-dasharray="5,2" points="1174.09,-118 1138.05,-136 1065.95,-136 1029.91,-118 1065.95,-100 1138.05,-100 1174.09,-118"/>
<text text-anchor="middle" x="1102" y="-114.3" font-family="Times,serif" font-size="14.00">if (run_manta)</text>
</g>
<!-- CONDITIONAL_3_EXPRESSION -->
<g id="node20" class="node">
<title>CONDITIONAL_3_EXPRESSION</title>
<polygon fill="none" stroke="black" stroke-dasharray="5,2" points="209.63,-198 161.31,-216 64.69,-216 16.37,-198 64.69,-180 161.31,-180 209.63,-198"/>
<text text-anchor="middle" x="113" y="-194.3" font-family="Times,serif" font-size="14.00">if (collect_coverage)</text>
</g>
</g>
</svg>
