<?xml version="1.0" encoding="UTF-8" standalone="no"?>
<!DOCTYPE svg PUBLIC "-//W3C//DTD SVG 1.1//EN"
 "http://www.w3.org/Graphics/SVG/1.1/DTD/svg11.dtd">
<!-- Generated by graphviz version 2.46.1 (20210213.1702)
 -->
<!-- Title: Module00a Pages: 1 -->
<svg width="1539pt" height="324pt"
 viewBox="0.00 0.00 1539.00 324.00" xmlns="http://www.w3.org/2000/svg" xmlns:xlink="http://www.w3.org/1999/xlink">
<g id="graph0" class="graph" transform="scale(1 1) rotate(0) translate(4 320)">
<title>Module00a</title>
<polygon fill="white" stroke="transparent" points="-4,4 -4,-320 1535,-320 1535,4 -4,4"/>
<g id="clust1" class="cluster">
<title>cluster_6</title>
<polygon fill="white" stroke="black" stroke-dasharray="5,2" points="8,-8 8,-76 701,-76 701,-8 8,-8"/>
</g>
<g id="clust2" class="cluster">
<title>cluster_7</title>
<polygon fill="white" stroke="black" stroke-dasharray="5,2" points="174,-16 174,-68 693,-68 693,-16 174,-16"/>
</g>
<g id="clust3" class="cluster">
<title>cluster_5</title>
<polygon fill="white" stroke="black" stroke-dasharray="5,2" points="595,-88 595,-148 957,-148 957,-88 595,-88"/>
</g>
<g id="clust4" class="cluster">
<title>cluster_0</title>
<polygon fill="white" stroke="black" stroke-dasharray="5,2" points="245,-88 245,-148 517,-148 517,-88 245,-88"/>
</g>
<g id="clust5" class="cluster">
<title>cluster_4</title>
<polygon fill="white" stroke="black" stroke-dasharray="5,2" points="262,-172 262,-224 642,-224 642,-172 262,-172"/>
</g>
<g id="clust6" class="cluster">
<title>cluster_1</title>
<polygon fill="white" stroke="black" stroke-dasharray="5,2" points="628,-248 628,-308 963,-308 963,-248 628,-248"/>
</g>
<g id="clust7" class="cluster">
<title>cluster_2</title>
<polygon fill="white" stroke="black" stroke-dasharray="5,2" points="965,-88 965,-148 1231,-148 1231,-88 965,-88"/>
</g>
<g id="clust8" class="cluster">
<title>cluster_8</title>
<polygon fill="white" stroke="black" stroke-dasharray="5,2" points="650,-168 650,-228 944,-228 944,-168 650,-168"/>
</g>
<g id="clust9" class="cluster">
<title>cluster_3</title>
<polygon fill="white" stroke="black" stroke-dasharray="5,2" points="1239,-88 1239,-148 1523,-148 1523,-88 1239,-88"/>
</g>
<!-- CALL_MELT -->
<g id="node1" class="node">
<title>CALL_MELT</title>
<ellipse fill="none" stroke="black" cx="455" cy="-118" rx="50.09" ry="18"/>
<ellipse fill="none" stroke="black" cx="455" cy="-118" rx="54.09" ry="22"/>
<text text-anchor="middle" x="455" y="-114.3" font-family="Times,serif" font-size="14.00">call MELT</text>
</g>
<!-- CALL_DeleteIntermediateFiles -->
<g id="node2" class="node">
<title>CALL_DeleteIntermediateFiles</title>
<ellipse fill="none" stroke="black" cx="575" cy="-42" rx="110.48" ry="18"/>
<text text-anchor="middle" x="575" y="-38.3" font-family="Times,serif" font-size="14.00">call DeleteIntermediateFiles</text>
</g>
<!-- CALL_MELT&#45;&gt;CALL_DeleteIntermediateFiles -->
<g id="edge1" class="edge">
<title>CALL_MELT&#45;&gt;CALL_DeleteIntermediateFiles</title>
<path fill="none" stroke="black" d="M483.74,-99.28C500.39,-89.01 521.5,-75.99 539.22,-65.06"/>
<polygon fill="black" stroke="black" points="541.46,-67.79 548.14,-59.57 537.79,-61.84 541.46,-67.79"/>
</g>
<!-- CALL_CollectCounts -->
<g id="node3" class="node">
<title>CALL_CollectCounts</title>
<ellipse fill="none" stroke="black" cx="558" cy="-198" rx="76.09" ry="18"/>
<text text-anchor="middle" x="558" y="-194.3" font-family="Times,serif" font-size="14.00">call CollectCounts</text>
</g>
<!-- CALL_CollectCounts&#45;&gt;CALL_MELT -->
<g id="edge2" class="edge">
<title>CALL_CollectCounts&#45;&gt;CALL_MELT</title>
<path fill="none" stroke="black" d="M536.16,-180.46C522.08,-169.8 503.51,-155.74 487.69,-143.75"/>
<polygon fill="black" stroke="black" points="489.79,-140.95 479.7,-137.71 485.56,-146.54 489.79,-140.95"/>
</g>
<!-- CALL_CollectCounts&#45;&gt;CALL_DeleteIntermediateFiles -->
<g id="edge7" class="edge">
<title>CALL_CollectCounts&#45;&gt;CALL_DeleteIntermediateFiles</title>
<path fill="none" stroke="black" d="M557.03,-179.87C556.15,-158.28 555.67,-120.12 561,-88 561.97,-82.15 563.52,-76 565.23,-70.2"/>
<polygon fill="black" stroke="black" points="568.7,-70.85 568.41,-60.25 562.03,-68.71 568.7,-70.85"/>
</g>
<!-- CALL_Whamg -->
<g id="node4" class="node">
<title>CALL_Whamg</title>
<ellipse fill="none" stroke="black" cx="878" cy="-198" rx="53.89" ry="18"/>
<ellipse fill="none" stroke="black" cx="878" cy="-198" rx="57.89" ry="22"/>
<text text-anchor="middle" x="878" y="-194.3" font-family="Times,serif" font-size="14.00">call Whamg</text>
</g>
<!-- CALL_Whamg&#45;&gt;CALL_DeleteIntermediateFiles -->
<g id="edge3" class="edge">
<title>CALL_Whamg&#45;&gt;CALL_DeleteIntermediateFiles</title>
<path fill="none" stroke="black" d="M844.31,-179.94C833.87,-175.34 822.18,-170.85 811,-168 763.43,-155.88 626.75,-181.65 591,-148 570.27,-128.49 568.72,-94.33 570.76,-70.29"/>
<polygon fill="black" stroke="black" points="574.27,-70.36 571.89,-60.04 567.32,-69.59 574.27,-70.36"/>
</g>
<!-- CALL_CramToBam -->
<g id="node5" class="node">
<title>CALL_CramToBam</title>
<ellipse fill="none" stroke="black" cx="878" cy="-278" rx="72.6" ry="18"/>
<ellipse fill="none" stroke="black" cx="878" cy="-278" rx="76.59" ry="22"/>
<text text-anchor="middle" x="878" y="-274.3" font-family="Times,serif" font-size="14.00">call CramToBam</text>
</g>
<!-- CALL_CramToBam&#45;&gt;CALL_MELT -->
<g id="edge6" class="edge">
<title>CALL_CramToBam&#45;&gt;CALL_MELT</title>
<path fill="none" stroke="black" d="M834.97,-259.61C821.73,-254.99 806.95,-250.58 793,-248 763.75,-242.59 278.63,-249.42 258,-228 239.5,-208.79 240.59,-188.2 258,-168 277.66,-145.19 363.15,-156.6 392,-148 399.14,-145.87 406.51,-143.08 413.58,-140.06"/>
<polygon fill="black" stroke="black" points="415.28,-143.14 422.98,-135.86 412.43,-136.75 415.28,-143.14"/>
</g>
<!-- CALL_CramToBam&#45;&gt;CALL_DeleteIntermediateFiles -->
<g id="edge11" class="edge">
<title>CALL_CramToBam&#45;&gt;CALL_DeleteIntermediateFiles</title>
<path fill="none" stroke="black" d="M834.98,-259.6C821.73,-254.98 806.95,-250.57 793,-248 762.77,-242.42 261.34,-250.13 240,-228 231.89,-219.59 231.86,-97.55 241,-88 257.47,-70.8 431.5,-79.85 455,-76 475.98,-72.57 498.55,-66.9 518.4,-61.22"/>
<polygon fill="black" stroke="black" points="519.59,-64.52 528.21,-58.35 517.63,-57.8 519.59,-64.52"/>
</g>
<!-- CALL_CramToBam&#45;&gt;CALL_CollectCounts -->
<g id="edge9" class="edge">
<title>CALL_CramToBam&#45;&gt;CALL_CollectCounts</title>
<path fill="none" stroke="black" d="M833.48,-260C820.57,-255.57 806.35,-251.15 793,-248 728.83,-232.84 710.25,-242.83 646,-228 633.01,-225 619.21,-220.91 606.48,-216.74"/>
<polygon fill="black" stroke="black" points="607.58,-213.42 596.99,-213.55 605.36,-220.05 607.58,-213.42"/>
</g>
<!-- CALL_CramToBam&#45;&gt;CALL_Whamg -->
<g id="edge4" class="edge">
<title>CALL_CramToBam&#45;&gt;CALL_Whamg</title>
<path fill="none" stroke="black" d="M878,-255.69C878,-247.8 878,-238.68 878,-230.1"/>
<polygon fill="black" stroke="black" points="881.5,-230.02 878,-220.02 874.5,-230.02 881.5,-230.02"/>
</g>
<!-- CALL_PESRCollection -->
<g id="node6" class="node">
<title>CALL_PESRCollection</title>
<ellipse fill="none" stroke="black" cx="862" cy="-118" rx="83.38" ry="18"/>
<ellipse fill="none" stroke="black" cx="862" cy="-118" rx="87.39" ry="22"/>
<text text-anchor="middle" x="862" y="-114.3" font-family="Times,serif" font-size="14.00">call PESRCollection</text>
</g>
<!-- CALL_CramToBam&#45;&gt;CALL_PESRCollection -->
<g id="edge10" class="edge">
<title>CALL_CramToBam&#45;&gt;CALL_PESRCollection</title>
<path fill="none" stroke="black" d="M917.04,-259.01C929.21,-251.31 941.22,-241.03 948,-228 960.31,-204.35 961.4,-191.06 948,-168 941.6,-156.98 931.68,-148.23 920.83,-141.37"/>
<polygon fill="black" stroke="black" points="922.39,-138.22 911.98,-136.25 918.89,-144.29 922.39,-138.22"/>
</g>
<!-- CALL_Delly -->
<g id="node7" class="node">
<title>CALL_Delly</title>
<ellipse fill="none" stroke="black" cx="1174" cy="-118" rx="45.49" ry="18"/>
<ellipse fill="none" stroke="black" cx="1174" cy="-118" rx="49.49" ry="22"/>
<text text-anchor="middle" x="1174" y="-114.3" font-family="Times,serif" font-size="14.00">call Delly</text>
</g>
<!-- CALL_CramToBam&#45;&gt;CALL_Delly -->
<g id="edge8" class="edge">
<title>CALL_CramToBam&#45;&gt;CALL_Delly</title>
<path fill="none" stroke="black" d="M913.12,-258.25C968.65,-228.61 1076.37,-171.11 1134.51,-140.08"/>
<polygon fill="black" stroke="black" points="1136.23,-143.13 1143.4,-135.33 1132.93,-136.96 1136.23,-143.13"/>
</g>
<!-- CALL_Manta -->
<g id="node8" class="node">
<title>CALL_Manta</title>
<ellipse fill="none" stroke="black" cx="1462" cy="-118" rx="48.97" ry="18"/>
<ellipse fill="none" stroke="black" cx="1462" cy="-118" rx="52.99" ry="22"/>
<text text-anchor="middle" x="1462" y="-114.3" font-family="Times,serif" font-size="14.00">call Manta</text>
</g>
<!-- CALL_CramToBam&#45;&gt;CALL_Manta -->
<g id="edge12" class="edge">
<title>CALL_CramToBam&#45;&gt;CALL_Manta</title>
<path fill="none" stroke="black" d="M941.43,-265.48C1040.86,-246.51 1238.72,-205.03 1400,-148 1406.62,-145.66 1413.5,-142.85 1420.15,-139.92"/>
<polygon fill="black" stroke="black" points="1422.03,-142.9 1429.68,-135.57 1419.13,-136.54 1422.03,-142.9"/>
</g>
<!-- CALL_PESRCollection&#45;&gt;CALL_DeleteIntermediateFiles -->
<g id="edge5" class="edge">
<title>CALL_PESRCollection&#45;&gt;CALL_DeleteIntermediateFiles</title>
<path fill="none" stroke="black" d="M809.35,-100.46C795.32,-96.22 780.12,-91.79 766,-88 727.2,-77.58 683.63,-67.21 647.9,-59.06"/>
<polygon fill="black" stroke="black" points="648.57,-55.62 638.04,-56.82 647.02,-62.45 648.57,-55.62"/>
</g>
<!-- CALL_Delly&#45;&gt;CALL_DeleteIntermediateFiles -->
<g id="edge14" class="edge">
<title>CALL_Delly&#45;&gt;CALL_DeleteIntermediateFiles</title>
<path fill="none" stroke="black" d="M1145.37,-99.99C1136.27,-95.33 1125.97,-90.8 1116,-88 1038.94,-66.4 826.04,-53.65 691.44,-47.52"/>
<polygon fill="black" stroke="black" points="691.23,-44.01 681.08,-47.06 690.92,-51 691.23,-44.01"/>
</g>
<!-- CALL_Manta&#45;&gt;CALL_DeleteIntermediateFiles -->
<g id="edge13" class="edge">
<title>CALL_Manta&#45;&gt;CALL_DeleteIntermediateFiles</title>
<path fill="none" stroke="black" d="M1431.64,-99.97C1421.83,-95.25 1410.72,-90.69 1400,-88 1270.18,-55.4 891.17,-46.42 695.31,-43.94"/>
<polygon fill="black" stroke="black" points="695.3,-40.44 685.26,-43.82 695.21,-47.44 695.3,-40.44"/>
</g>
<!-- CONDITIONAL_7_EXPRESSION -->
<g id="node9" class="node">
<title>CONDITIONAL_7_EXPRESSION</title>
<polygon fill="none" stroke="black" stroke-dasharray="5,2" points="446.17,-42 380.09,-60 247.91,-60 181.83,-42 247.91,-24 380.09,-24 446.17,-42"/>
<text text-anchor="middle" x="314" y="-38.3" font-family="Times,serif" font-size="14.00">if (delete_intermediate_bam)</text>
</g>
<!-- CONDITIONAL_6_EXPRESSION -->
<g id="node10" class="node">
<title>CONDITIONAL_6_EXPRESSION</title>
<polygon fill="none" stroke="black" stroke-dasharray="5,2" points="163.6,-42 126.8,-60 53.2,-60 16.4,-42 53.2,-24 126.8,-24 163.6,-42"/>
<text text-anchor="middle" x="90" y="-38.3" font-family="Times,serif" font-size="14.00">if (!(is_bam_))</text>
</g>
<!-- CONDITIONAL_5_EXPRESSION -->
<g id="node11" class="node">
<title>CONDITIONAL_5_EXPRESSION</title>
<polygon fill="none" stroke="black" stroke-dasharray="5,2" points="757.1,-118 718.55,-136 641.45,-136 602.9,-118 641.45,-100 718.55,-100 757.1,-118"/>
<text text-anchor="middle" x="680" y="-114.3" font-family="Times,serif" font-size="14.00">if (collect_pesr)</text>
</g>
<!-- CONDITIONAL_0_EXPRESSION -->
<g id="node12" class="node">
<title>CONDITIONAL_0_EXPRESSION</title>
<polygon fill="none" stroke="black" stroke-dasharray="5,2" points="383.09,-118 350.54,-136 285.46,-136 252.91,-118 285.46,-100 350.54,-100 383.09,-118"/>
<text text-anchor="middle" x="318" y="-114.3" font-family="Times,serif" font-size="14.00">if (run_melt)</text>
</g>
<!-- CONDITIONAL_4_EXPRESSION -->
<g id="node13" class="node">
<title>CONDITIONAL_4_EXPRESSION</title>
<polygon fill="none" stroke="black" stroke-dasharray="5,2" points="463.63,-198 415.31,-216 318.69,-216 270.37,-198 318.69,-180 415.31,-180 463.63,-198"/>
<text text-anchor="middle" x="367" y="-194.3" font-family="Times,serif" font-size="14.00">if (collect_coverage)</text>
</g>
<!-- CONDITIONAL_1_EXPRESSION -->
<g id="node14" class="node">
<title>CONDITIONAL_1_EXPRESSION</title>
<polygon fill="none" stroke="black" stroke-dasharray="5,2" points="783.6,-278 746.8,-296 673.2,-296 636.4,-278 673.2,-260 746.8,-260 783.6,-278"/>
<text text-anchor="middle" x="710" y="-274.3" font-family="Times,serif" font-size="14.00">if (!(is_bam_))</text>
</g>
<!-- CONDITIONAL_2_EXPRESSION -->
<g id="node15" class="node">
<title>CONDITIONAL_2_EXPRESSION</title>
<polygon fill="none" stroke="black" stroke-dasharray="5,2" points="1106.59,-118 1073.29,-136 1006.71,-136 973.41,-118 1006.71,-100 1073.29,-100 1106.59,-118"/>
<text text-anchor="middle" x="1040" y="-114.3" font-family="Times,serif" font-size="14.00">if (run_delly)</text>
</g>
<!-- CONDITIONAL_8_EXPRESSION -->
<g id="node16" class="node">
<title>CONDITIONAL_8_EXPRESSION</title>
<polygon fill="none" stroke="black" stroke-dasharray="5,2" points="802.09,-198 766.05,-216 693.95,-216 657.91,-198 693.95,-180 766.05,-180 802.09,-198"/>
<text text-anchor="middle" x="730" y="-194.3" font-family="Times,serif" font-size="14.00">if (run_wham)</text>
</g>
<!-- CONDITIONAL_3_EXPRESSION -->
<g id="node17" class="node">
<title>CONDITIONAL_3_EXPRESSION</title>
<polygon fill="none" stroke="black" stroke-dasharray="5,2" points="1391.09,-118 1355.05,-136 1282.95,-136 1246.91,-118 1282.95,-100 1355.05,-100 1391.09,-118"/>
<text text-anchor="middle" x="1319" y="-114.3" font-family="Times,serif" font-size="14.00">if (run_manta)</text>
</g>
</g>
</svg>
