<?xml version="1.0" encoding="UTF-8" standalone="no"?>
<!DOCTYPE svg PUBLIC "-//W3C//DTD SVG 1.1//EN"
 "http://www.w3.org/Graphics/SVG/1.1/DTD/svg11.dtd">
<!-- Generated by graphviz version 2.46.1 (20210213.1702)
 -->
<!-- Title: Whamg Pages: 1 -->
<svg width="992pt" height="148pt"
 viewBox="0.00 0.00 992.00 148.00" xmlns="http://www.w3.org/2000/svg" xmlns:xlink="http://www.w3.org/1999/xlink">
<g id="graph0" class="graph" transform="scale(1 1) rotate(0) translate(4 144)">
<title>Whamg</title>
<polygon fill="white" stroke="transparent" points="-4,4 -4,-144 988,-144 988,4 -4,4"/>
<g id="clust1" class="cluster">
<title>cluster_0</title>
<polygon fill="white" stroke="black" stroke-dasharray="5,2" points="142,-8 142,-60 577,-60 577,-8 142,-8"/>
</g>
<g id="clust2" class="cluster">
<title>cluster_1</title>
<polygon fill="white" stroke="black" stroke-dasharray="5,2" points="585,-8 585,-60 967,-60 967,-8 585,-8"/>
</g>
<g id="clust3" class="cluster">
<title>cluster_2</title>
<polygon fill="white" stroke="black" stroke-dasharray="5,2" points="8,-80 8,-132 976,-132 976,-80 8,-80"/>
</g>
<!-- CALL_RunCramToBam -->
<g id="node1" class="node">
<title>CALL_RunCramToBam</title>
<ellipse fill="none" stroke="black" cx="881" cy="-106" rx="87.18" ry="18"/>
<text text-anchor="middle" x="881" y="-102.3" font-family="Times,serif" font-size="14.00">call RunCramToBam</text>
</g>
<!-- CALL_RunWhamgIncludelist -->
<g id="node2" class="node">
<title>CALL_RunWhamgIncludelist</title>
<ellipse fill="none" stroke="black" cx="462" cy="-34" rx="106.68" ry="18"/>
<text text-anchor="middle" x="462" y="-30.3" font-family="Times,serif" font-size="14.00">call RunWhamgIncludelist</text>
</g>
<!-- CALL_RunCramToBam&#45;&gt;CALL_RunWhamgIncludelist -->
<g id="edge1" class="edge">
<title>CALL_RunCramToBam&#45;&gt;CALL_RunWhamgIncludelist</title>
<path fill="none" stroke="black" d="M832.98,-90.92C817.75,-86.88 800.77,-82.81 785,-80 695.31,-64.03 671.05,-73.83 581,-60 565.02,-57.55 547.94,-54.32 531.86,-51.01"/>
<polygon fill="black" stroke="black" points="532.5,-47.57 522,-48.94 531.07,-54.42 532.5,-47.57"/>
</g>
<!-- CALL_RunWhamg -->
<g id="node3" class="node">
<title>CALL_RunWhamg</title>
<ellipse fill="none" stroke="black" cx="889" cy="-34" rx="69.59" ry="18"/>
<text text-anchor="middle" x="889" y="-30.3" font-family="Times,serif" font-size="14.00">call RunWhamg</text>
</g>
<!-- CALL_RunCramToBam&#45;&gt;CALL_RunWhamg -->
<g id="edge2" class="edge">
<title>CALL_RunCramToBam&#45;&gt;CALL_RunWhamg</title>
<path fill="none" stroke="black" d="M882.98,-87.7C883.86,-79.98 884.92,-70.71 885.9,-62.11"/>
<polygon fill="black" stroke="black" points="889.39,-62.44 887.05,-52.1 882.43,-61.64 889.39,-62.44"/>
</g>
<!-- CONDITIONAL_0_EXPRESSION -->
<g id="node4" class="node">
<title>CONDITIONAL_0_EXPRESSION</title>
<polygon fill="none" stroke="black" stroke-dasharray="5,2" points="337.62,-34 290.81,-52 197.19,-52 150.38,-34 197.19,-16 290.81,-16 337.62,-34"/>
<text text-anchor="middle" x="244" y="-30.3" font-family="Times,serif" font-size="14.00">if (use_include_list)</text>
</g>
<!-- CONDITIONAL_1_EXPRESSION -->
<g id="node5" class="node">
<title>CONDITIONAL_1_EXPRESSION</title>
<polygon fill="none" stroke="black" stroke-dasharray="5,2" points="801.14,-34 749.07,-52 644.93,-52 592.86,-34 644.93,-16 749.07,-16 801.14,-34"/>
<text text-anchor="middle" x="697" y="-30.3" font-family="Times,serif" font-size="14.00">if (!(use_include_list))</text>
</g>
<!-- CONDITIONAL_2_EXPRESSION -->
<g id="node6" class="node">
<title>CONDITIONAL_2_EXPRESSION</title>
<polygon fill="none" stroke="black" stroke-dasharray="5,2" points="775.99,-106 586,-124 206,-124 16.01,-106 206,-88 586,-88 775.99,-106"/>
<text text-anchor="middle" x="396" y="-102.3" font-family="Times,serif" font-size="14.00">if (((basename(bam_or_cram_file, &quot;.bam&quot;) + &quot;.bam&quot;) != basename(bam_or_cram_file)))</text>
</g>
</g>
</svg>
